<svg xmlns:ev="http://www.w3.org/2001/xml-events" id="page100" width="1402" viewBox="0 0 1402 612" height="612" xmlns:xlink="http://www.w3.org/1999/xlink" ed:name="Page-1" ed:vSpacing="30" xmlns="http://www.w3.org/2000/svg" xmlns:ed="https://www.edrawsoft.cn/xml/2017/SVGExtensions/" ed:hSpacing="30"><style type="text/css"><![CDATA[
g[ed\:togtopicid],g[ed\:hyperlink],g[ed\:comment],g[ed\:note] {cursor:pointer;}
g[id] {-moz-user-select: none;-ms-user-select: none;user-select: none;}
svg text::selection,svg tspan::selection{background-color: #4285f4;color: #ffffff;fill: #ffffff;}
.st6 {fill:#000000;font-family:Courier New}
.st10 {fill:#000000;font-family:Menlo,Monaco,Consolas,Andale Mono,lucida console,Courier New,monospace;font-weight:bold}
.st11 {fill:#000000;font-family:Menlo,Monaco,Consolas,Andale Mono,lucida console,Courier New,monospace}
.st13 {fill:#000066;font-family:Menlo,Monaco,Consolas,Andale Mono,lucida console,Courier New,monospace;font-weight:bold}
.st5 {fill:#000088;font-family:Courier New}
.st16 {fill:#003399;font-family:Menlo,Monaco,Consolas,Andale Mono,lucida console,Courier New,monospace}
.st17 {fill:#006633;font-family:Menlo,Monaco,Consolas,Andale Mono,lucida console,Courier New,monospace}
.st12 {fill:#009900;font-family:Menlo,Monaco,Consolas,Andale Mono,lucida console,Courier New,monospace}
.st2 {fill:#303030;font-family:微软雅黑;font-size:12pt}
.st14 {fill:#339933;font-family:Menlo,Monaco,Consolas,Andale Mono,lucida console,Courier New,monospace}
.st3 {fill:#454545;font-family:微软雅黑;font-size:10pt}
.st4 {fill:#454545;font-family:微软雅黑;font-size:11pt}
.st7 {fill:#660066;font-family:Courier New}
.st8 {fill:#666600;font-family:Courier New}
.st9 {fill:#880000;font-family:Courier New}
.st15 {fill:#cc66cc;font-family:Menlo,Monaco,Consolas,Andale Mono,lucida console,Courier New,monospace}
.st1 {fill:#ffffff;font-family:微软雅黑;font-size:14pt}
]]></style><defs><linearGradient x1="0%" id="lg1" y2="100%" y1="0%" x2="0%"><stop offset="0" stop-color="#ffffff"/><stop offset="0.25" stop-color="#f0f5f0"/><stop offset="0.75" stop-color="#e1ebe1"/><stop offset="1" stop-color="#c8d7c8"/></linearGradient></defs><rect x="0" y="0" width="1402" height="612" fill="#ffffff"/><path stroke="#696969" transform="matrix(1,0,0,1,156,173)" ed:tosuperid="102" id="103" stroke-linecap="round" d="M-30.9,105.3C-0.4,36.9,-18.4,-133.3,65.4,-133.3" ed:parentid="101" fill="none" stroke-linejoin="round"/><path stroke="#696969" transform="matrix(1,0,0,1,156,207)" ed:tosuperid="104" id="105" stroke-linecap="round" d="M-27.7,70.5C-0.2,16.1,-3.4,-98.5,65.4,-98.5" ed:parentid="101" fill="none" stroke-linejoin="round"/><path stroke="#696969" transform="matrix(1,0,0,1,156,242)" ed:tosuperid="106" id="107" stroke-linecap="round" d="M-21.2,35.6C3.4,-1.8,14.3,-63.6,65.4,-63.6" ed:parentid="101" fill="none" stroke-linejoin="round"/><path stroke="#696969" transform="matrix(1,0,0,1,156,358)" ed:tosuperid="108" id="109" stroke-linecap="round" d="M-17.2,-24.3C6.2,6.7,20.8,52.3,65.4,52.3" ed:parentid="101" fill="none" stroke-linejoin="round"/><path stroke="#696969" transform="matrix(1,0,0,1,322,332)" ed:tosuperid="110" id="111" stroke-linecap="round" d="M-13.5,78.5C5.4,78.5,-13.5,-78.5,13.5,-78.5" ed:parentid="108" fill="none" stroke-linejoin="round"/><path stroke="#696969" transform="matrix(1,0,0,1,322,347)" ed:tosuperid="112" id="113" stroke-linecap="round" d="M-13.5,63.5C5.4,63.5,-13.5,-63.5,13.5,-63.5" ed:parentid="108" fill="none" stroke-linejoin="round"/><path stroke="#696969" transform="matrix(1,0,0,1,322,403)" ed:tosuperid="114" id="115" stroke-linecap="round" d="M-13.5,7.5C-1,7.5,1.3,-7.5,13.5,-7.5" ed:parentid="108" fill="none" stroke-linejoin="round"/><path stroke="#696969" transform="matrix(1,0,0,1,407,355)" ed:tosuperid="116" id="117" stroke-linecap="round" d="M-13.5,41C4.8,41,-12.2,-41,13.5,-41" ed:parentid="114" fill="none" stroke-linejoin="round"/><path stroke="#696969" transform="matrix(1,0,0,1,407,403)" ed:tosuperid="118" id="119" stroke-linecap="round" d="M-13.5,-7.5C-0.9,-7.5,1.3,7.5,13.5,7.5" ed:parentid="114" fill="none" stroke-linejoin="round"/><path stroke="#696969" transform="matrix(1,0,0,1,519,377)" ed:tosuperid="120" id="121" stroke-linecap="round" d="M-13.5,33.5C4,33.5,-10.2,-33.5,13.5,-33.5" ed:parentid="118" fill="none" stroke-linejoin="round"/><path stroke="#696969" transform="matrix(1,0,0,1,519,418)" ed:tosuperid="122" id="123" stroke-linecap="round" d="M-13.5,-7.5C-0.9,-7.5,1.3,7.5,13.5,7.5" ed:parentid="118" fill="none" stroke-linejoin="round"/><path stroke="#696969" transform="matrix(1,0,0,1,631,418)" ed:tosuperid="124" id="125" stroke-linecap="round" d="M-13.5,7.5C-0.9,7.5,1.3,-7.5,13.5,-7.5" ed:parentid="122" fill="none" stroke-linejoin="round"/><path stroke="#696969" transform="matrix(1,0,0,1,631,452)" ed:tosuperid="126" id="127" stroke-linecap="round" d="M-13.5,-26C2.9,-26,-7.6,26,13.5,26" ed:parentid="122" fill="none" stroke-linejoin="round"/><path stroke="#696969" transform="matrix(1,0,0,1,407,284)" ed:tosuperid="128" id="129" stroke-linecap="round" d="M-13.5,0C-2.7,0,5.4,0,13.5,0" ed:parentid="112" fill="none" stroke-linejoin="round"/><path stroke="#696969" transform="matrix(1,0,0,1,322,480)" ed:tosuperid="130" id="131" stroke-linecap="round" d="M-13.5,-69.4C5.4,-69.4,-13.5,69.4,13.5,69.4" ed:parentid="108" fill="none" stroke-linejoin="round"/><path stroke="#696969" transform="matrix(1,0,0,1,434,570)" ed:tosuperid="132" id="133" stroke-linecap="round" d="M-13.5,-20.8C1.9,-20.8,-5.4,20.8,13.5,20.8" ed:parentid="130" fill="none" stroke-linejoin="round"/><path stroke="#696969" transform="matrix(1,0,0,1,769,411)" ed:tosuperid="134" id="135" stroke-linecap="round" d="M-13.5,0C-2.7,0,5.4,0,13.5,0" ed:parentid="124" fill="none" stroke-linejoin="round"/><path stroke="#696969" transform="matrix(1,0,0,1,854,429)" ed:tosuperid="136" id="137" stroke-linecap="round" d="M-13.5,-18.5C1.5,-18.5,-4.3,18.5,13.5,18.5" ed:parentid="134" fill="none" stroke-linejoin="round"/><g transform="matrix(1,0,0,1,23,278)" id="101" ed:width="135.6666666666667" ed:height="56" ed:topictype="mainidea" ed:layout="rightmap"><path stroke="#435fbc" d="M4,0L131.7,0C134.4,0,135.7,1.3,135.7,4L135.7,52C135.7,54.7,134.4,56,131.7,56L4,56C1.3,56,0,54.7,0,52L0,4C0,1.3,1.3,0,4,0z" stroke-width="3" fill="#435fbc" stroke-linejoin="round"/><text class="st1"><tspan x="21" y="34.1" style="white-space:pre">java常用类</tspan></text></g><g transform="matrix(1,0,0,1,222,21)" id="102" ed:width="71" ed:parentid="101" ed:height="36.66666666666667"><path stroke="#ebecf3" d="M4,0L67,0C69.7,0,71,1.3,71,4L71,32.7C71,35.4,69.7,36.7,67,36.7L4,36.7C1.3,36.7,0,35.4,0,32.7L0,4C0,1.3,1.3,0,4,0z" fill="#ebecf3" stroke-linejoin="round"/><text class="st2"><tspan x="18" y="23.5" style="white-space:pre">根类</tspan></text></g><g transform="matrix(1,0,0,1,222,91)" id="104" ed:width="87" ed:parentid="101" ed:height="36.66666666666667"><path stroke="#ebecf3" d="M4,0L83,0C85.7,0,87,1.3,87,4L87,32.7C87,35.4,85.7,36.7,83,36.7L4,36.7C1.3,36.7,0,35.4,0,32.7L0,4C0,1.3,1.3,0,4,0z" fill="#ebecf3" stroke-linejoin="round"/><text class="st2"><tspan x="18" y="23.5" style="white-space:pre">包装类</tspan></text></g><g transform="matrix(1,0,0,1,222,160)" id="106" ed:width="71" ed:parentid="101" ed:height="36.66666666666667"><path stroke="#ebecf3" d="M4,0L67,0C69.7,0,71,1.3,71,4L71,32.7C71,35.4,69.7,36.7,67,36.7L4,36.7C1.3,36.7,0,35.4,0,32.7L0,4C0,1.3,1.3,0,4,0z" fill="#ebecf3" stroke-linejoin="round"/><text class="st2"><tspan x="18" y="23.5" style="white-space:pre">日期</tspan></text></g><g transform="matrix(1,0,0,1,222,392)" id="108" ed:width="87" ed:parentid="101" ed:height="36.66666666666667"><path stroke="#ebecf3" d="M4,0L83,0C85.7,0,87,1.3,87,4L87,32.7C87,35.4,85.7,36.7,83,36.7L4,36.7C1.3,36.7,0,35.4,0,32.7L0,4C0,1.3,1.3,0,4,0z" fill="#ebecf3" stroke-linejoin="round"/><text class="st2"><tspan x="18" y="23.5" style="white-space:pre">内部类</tspan></text></g><g transform="matrix(1,0,0,1,336,230)" id="110" ed:width="178" ed:parentid="108" ed:height="23.5"><path stroke="#696969" d="M0,23.5L178,23.5" fill="none" stroke-linejoin="round"/><text class="st3"><tspan x="8" y="15.4" style="white-space:pre">在一个类的内部定义一个类</tspan></text></g><g transform="matrix(1,0,0,1,336,260)" id="112" ed:width="58" ed:parentid="108" ed:height="23.5"><path stroke="#696969" d="M0,23.5L58,23.5" fill="none" stroke-linejoin="round"/><text class="st3"><tspan x="8" y="15.4" style="white-space:pre">作用：</tspan></text></g><g transform="matrix(1,0,0,1,336,372)" id="114" ed:width="58" ed:parentid="108" ed:height="23.5"><path stroke="#696969" d="M0,23.5L58,23.5" fill="none" stroke-linejoin="round"/><text class="st3"><tspan x="8" y="15.4" style="white-space:pre">分类：</tspan></text></g><g transform="matrix(1,0,0,1,421,290)" id="116" ed:width="84.66666666666667" ed:parentid="114" ed:height="23.5"><path stroke="#696969" d="M0,23.5L84.7,23.5" fill="none" stroke-linejoin="round"/><text class="st3"><tspan x="8" y="15.4" style="white-space:pre">匿名内部类</tspan></text></g><g transform="matrix(1,0,0,1,421,387)" id="118" ed:width="84.66666666666667" ed:parentid="114" ed:height="23.5"><path stroke="#696969" d="M0,23.5L84.7,23.5" fill="none" stroke-linejoin="round"/><text class="st3"><tspan x="8" y="15.4" style="white-space:pre">有名内部类</tspan></text></g><g transform="matrix(1,0,0,1,532,320)" id="120" ed:width="84.66666666666667" ed:parentid="118" ed:height="23.5"><path stroke="#696969" d="M0,23.5L84.7,23.5" fill="none" stroke-linejoin="round"/><text class="st3"><tspan x="8" y="15.4" style="white-space:pre">局部内部类</tspan></text></g><g transform="matrix(1,0,0,1,532,402)" id="122" ed:width="84.66666666666667" ed:parentid="118" ed:height="23.5"><path stroke="#696969" d="M0,23.5L84.7,23.5" fill="none" stroke-linejoin="round"/><text class="st3"><tspan x="8" y="15.4" style="white-space:pre">成员内部类</tspan></text></g><g transform="matrix(1,0,0,1,644,387)" id="124" ed:width="111.3333333333333" ed:parentid="122" ed:height="23.5"><path stroke="#696969" d="M0,23.5L111.3,23.5" fill="none" stroke-linejoin="round"/><text class="st3"><tspan x="8" y="15.4" style="white-space:pre">实例成员内部类</tspan></text></g><g transform="matrix(1,0,0,1,644,454)" id="126" ed:width="111.3333333333333" ed:parentid="122" ed:height="23.5"><path stroke="#696969" d="M0,23.5L111.3,23.5" fill="none" stroke-linejoin="round"/><text class="st3"><tspan x="8" y="15.4" style="white-space:pre">静态成员内部类</tspan></text></g><g transform="matrix(1,0,0,1,421,260)" id="128" ed:width="323.3333333333333" ed:parentid="112" ed:height="23.5"><path stroke="#696969" d="M0,23.5L323.3,23.5" fill="none" stroke-linejoin="round"/><text class="st3"><tspan x="8" y="15.4" style="white-space:pre">封装 不想公开的实现细节  只能在所在外部类中访问</tspan></text></g><g transform="matrix(1,0,0,1,336,526)" id="130" ed:width="84.66666666666667" ed:parentid="108" ed:height="23.5"><path stroke="#696969" d="M0,23.5L84.7,23.5" fill="none" stroke-linejoin="round"/><text class="st3"><tspan x="8" y="15.4" style="white-space:pre">语法格式：</tspan></text></g><g transform="matrix(1,0,0,1,447,484)" id="132" ed:width="446.6666666666667" ed:parentid="130" ed:height="106.8333333333333"><path stroke="#696969" d="M0,106.8L446.7,106.8" fill="none" stroke-linejoin="round"/><text class="st4"><tspan x="32" y="16.1" class="st5" style="white-space:pre">class</tspan><tspan class="st6" style="white-space:pre"> </tspan><tspan class="st7" style="white-space:pre">OuterClass</tspan><tspan class="st6" style="white-space:pre"> </tspan><tspan class="st8" style="white-space:pre">{</tspan><tspan class="st6" style="white-space:pre">   </tspan><tspan class="st9" style="white-space:pre">// 外部类</tspan><tspan x="32" y="32.1" class="st6" style="white-space:pre">    </tspan><tspan class="st9" style="white-space:pre">// ...</tspan><tspan x="32" y="50.8" class="st6" style="white-space:pre">    </tspan><tspan class="st5" style="white-space:pre">class</tspan><tspan class="st6" style="white-space:pre"> </tspan><tspan class="st7" style="white-space:pre">NestedClass</tspan><tspan class="st6" style="white-space:pre"> </tspan><tspan class="st8" style="white-space:pre">{</tspan><tspan class="st6" style="white-space:pre"> </tspan><tspan class="st9" style="white-space:pre">// 嵌套类，或称为内部类</tspan><tspan x="32" y="66.8" class="st6" style="white-space:pre">        </tspan><tspan class="st9" style="white-space:pre">// ...</tspan><tspan x="32" y="82.8" class="st6" style="white-space:pre">    </tspan><tspan class="st8" style="white-space:pre">}</tspan><tspan x="32" y="98.8" class="st8" style="white-space:pre">}</tspan></text></g><g transform="matrix(1,0,0,1,782,387)" id="134" ed:width="58" ed:parentid="124" ed:height="23.5"><path stroke="#696969" d="M0,23.5L58,23.5" fill="none" stroke-linejoin="round"/><text class="st3"><tspan x="8" y="15.4" style="white-space:pre">案例：</tspan></text></g><g transform="matrix(1,0,0,1,867,350)" id="136" ed:width="514" ed:parentid="134" ed:height="97.5"><path stroke="#696969" d="M0,97.5L514,97.5" fill="none" stroke-linejoin="round"/><text class="st3"><tspan x="8" y="13.4" class="st10" style="white-space:pre">class</tspan><tspan class="st11" style="white-space:pre"> OuterClass </tspan><tspan class="st12" style="white-space:pre">{</tspan><tspan class="st11" style="white-space:pre">   </tspan><tspan class="st13" style="white-space:pre">int</tspan><tspan class="st11" style="white-space:pre"> x </tspan><tspan class="st14" style="white-space:pre">=</tspan><tspan class="st11" style="white-space:pre"> </tspan><tspan class="st15" style="white-space:pre">10</tspan><tspan class="st14" style="white-space:pre">;</tspan><tspan class="st11" style="white-space:pre">   </tspan><tspan class="st10" style="white-space:pre">class</tspan><tspan class="st11" style="white-space:pre"> InnerClass </tspan><tspan class="st12" style="white-space:pre">{</tspan><tspan class="st11" style="white-space:pre">   </tspan><tspan x="8" y="28.8" class="st11" style="white-space:pre">  </tspan><tspan class="st13" style="white-space:pre">int</tspan><tspan class="st11" style="white-space:pre"> y </tspan><tspan class="st14" style="white-space:pre">=</tspan><tspan class="st11" style="white-space:pre"> </tspan><tspan class="st15" style="white-space:pre">5</tspan><tspan class="st14" style="white-space:pre">;</tspan><tspan class="st11" style="white-space:pre">   </tspan><tspan class="st12" style="white-space:pre">}</tspan><tspan class="st11" style="white-space:pre"> </tspan><tspan class="st12" style="white-space:pre">}</tspan><tspan class="st11" style="white-space:pre"> </tspan><tspan class="st10" style="white-space:pre">public</tspan><tspan class="st11" style="white-space:pre"> </tspan><tspan class="st10" style="white-space:pre">class</tspan><tspan class="st11" style="white-space:pre"> MyMainClass </tspan><tspan class="st12" style="white-space:pre">{</tspan><tspan class="st11" style="white-space:pre"> </tspan><tspan x="8" y="44.1" class="st11" style="white-space:pre">  </tspan><tspan class="st10" style="white-space:pre">public</tspan><tspan class="st11" style="white-space:pre"> </tspan><tspan class="st10" style="white-space:pre">static</tspan><tspan class="st11" style="white-space:pre"> </tspan><tspan class="st13" style="white-space:pre">void</tspan><tspan class="st11" style="white-space:pre"> main</tspan><tspan class="st12" style="white-space:pre">(</tspan><tspan class="st16" style="white-space:pre">String</tspan><tspan class="st12" style="white-space:pre">[]</tspan><tspan class="st11" style="white-space:pre"> args</tspan><tspan class="st12" style="white-space:pre">)</tspan><tspan class="st11" style="white-space:pre"> </tspan><tspan class="st12" style="white-space:pre">{</tspan><tspan class="st11" style="white-space:pre">     OuterClass </tspan><tspan x="8" y="59.4" class="st11" style="white-space:pre">myOuter </tspan><tspan class="st14" style="white-space:pre">=</tspan><tspan class="st11" style="white-space:pre"> </tspan><tspan class="st10" style="white-space:pre">new</tspan><tspan class="st11" style="white-space:pre"> OuterClass</tspan><tspan class="st12" style="white-space:pre">()</tspan><tspan class="st14" style="white-space:pre">;</tspan><tspan class="st11" style="white-space:pre">     </tspan><tspan x="8" y="74.8" class="st11" style="white-space:pre">OuterClass.</tspan><tspan class="st17" style="white-space:pre">InnerClass</tspan><tspan class="st11" style="white-space:pre"> myInner </tspan><tspan class="st14" style="white-space:pre">=</tspan><tspan class="st11" style="white-space:pre"> myOuter.</tspan><tspan class="st10" style="white-space:pre">new</tspan><tspan class="st11" style="white-space:pre"> InnerClass</tspan><tspan class="st12" style="white-space:pre">()</tspan><tspan class="st14" style="white-space:pre">;</tspan><tspan class="st11" style="white-space:pre">   </tspan><tspan x="8" y="90.1" class="st11" style="white-space:pre">  </tspan><tspan class="st16" style="white-space:pre">System</tspan><tspan class="st11" style="white-space:pre">.</tspan><tspan class="st17" style="white-space:pre">out</tspan><tspan class="st11" style="white-space:pre">.</tspan><tspan class="st17" style="white-space:pre">println</tspan><tspan class="st12" style="white-space:pre">(</tspan><tspan class="st11" style="white-space:pre">myInner.</tspan><tspan class="st17" style="white-space:pre">y</tspan><tspan class="st11" style="white-space:pre"> </tspan><tspan class="st14" style="white-space:pre">+</tspan><tspan class="st11" style="white-space:pre"> myOuter.</tspan><tspan class="st17" style="white-space:pre">x</tspan><tspan class="st12" style="white-space:pre">)</tspan><tspan class="st14" style="white-space:pre">;</tspan><tspan class="st11" style="white-space:pre">   </tspan><tspan class="st12" style="white-space:pre">}</tspan><tspan class="st11" style="white-space:pre"> </tspan><tspan class="st12" style="white-space:pre">}</tspan></text></g><symbol id="plus"><path d="M11,6C11,8.8,8.8,11,6,11C3.2,11,1,8.8,1,6C1,3.2,3.2,1,6,1C8.8,1,11,3.2,11,6z" fill="url(#lg1)"/><path stroke="#46a000" d="M11,6C11,8.8,8.8,11,6,11C3.2,11,1,8.8,1,6C1,3.2,3.2,1,6,1C8.8,1,11,3.2,11,6zM3,6L9,6M6,3L6,9" stroke-width="0.7" fill="none"/></symbol><symbol id="minus"><path d="M11,6C11,8.8,8.8,11,6,11C3.2,11,1,8.8,1,6C1,3.2,3.2,1,6,1C8.8,1,11,3.2,11,6z" fill="url(#lg1)"/><path stroke="#46a000" d="M11,6C11,8.8,8.8,11,6,11C3.2,11,1,8.8,1,6C1,3.2,3.2,1,6,1C8.8,1,11,3.2,11,6zM3,6L9,6" stroke-width="0.7" fill="none"/></symbol><g transform="translate(160,300)" ed:togtopicid="101"><use xlink:href="#minus"/></g><g transform="translate(310,404)" ed:togtopicid="108"><use xlink:href="#minus"/></g><g transform="translate(395,266)" ed:togtopicid="112"><use xlink:href="#minus"/></g><g transform="translate(395,378)" ed:togtopicid="114"><use xlink:href="#minus"/></g><g transform="translate(506,393)" ed:togtopicid="118"><use xlink:href="#minus"/></g><g transform="translate(618,408)" ed:togtopicid="122"><use xlink:href="#minus"/></g><g transform="translate(756,393)" ed:togtopicid="124"><use xlink:href="#minus"/></g><g transform="translate(421,531)" ed:togtopicid="130"><use xlink:href="#minus"/></g><g transform="translate(841,393)" ed:togtopicid="134"><use xlink:href="#minus"/></g></svg>