<svg xmlns:ev="http://www.w3.org/2001/xml-events" id="page100" width="1169" viewBox="0 0 1169 680" height="680" xmlns:xlink="http://www.w3.org/1999/xlink" ed:name="Page-1" ed:vSpacing="30" xmlns="http://www.w3.org/2000/svg" xmlns:ed="https://www.edrawsoft.cn/xml/2017/SVGExtensions/" ed:hSpacing="30"><style type="text/css"><![CDATA[
g[ed\:togtopicid],g[ed\:hyperlink],g[ed\:comment],g[ed\:note] {cursor:pointer;}
g[id] {-moz-user-select: none;-ms-user-select: none;user-select: none;}
svg text::selection,svg tspan::selection{background-color: #4285f4;color: #ffffff;fill: #ffffff;}
.st2 {fill:#303030;font-family:微软雅黑;font-size:12pt}
.st3 {fill:#454545;font-family:微软雅黑;font-size:10pt}
.st1 {fill:#ffffff;font-family:微软雅黑;font-size:14pt}
]]></style><defs><linearGradient x1="0%" id="lg1" y2="100%" y1="0%" x2="0%"><stop offset="0" stop-color="#ffffff"/><stop offset="0.25" stop-color="#f0f5f0"/><stop offset="0.75" stop-color="#e1ebe1"/><stop offset="1" stop-color="#c8d7c8"/></linearGradient></defs><rect x="0" y="0" width="1169" height="680" fill="#ffffff"/><path stroke="#696969" transform="matrix(1,0,0,1,234,314)" ed:tosuperid="102" id="103" stroke-linecap="round" d="M7.7,-1.9C33.4,-14.3,58.5,-26.1,91.4,-26.1" ed:parentid="101" fill="none" stroke-linejoin="round"/><path stroke="#696969" transform="matrix(1,0,0,1,234,482)" ed:tosuperid="104" id="105" stroke-linecap="round" d="M-45.5,-113.6C0.5,-42.1,-11.7,141.6,91.4,141.6" ed:parentid="101" fill="none" stroke-linejoin="round"/><path stroke="#696969" transform="matrix(1,0,0,1,442,174)" ed:tosuperid="108" id="109" stroke-linecap="round" d="M-13.5,114.1C5.4,114.1,-13.5,-114.1,13.5,-114.1" ed:parentid="102" fill="none" stroke-linejoin="round"/><path stroke="#696969" transform="matrix(1,0,0,1,442,211)" ed:tosuperid="110" id="111" stroke-linecap="round" d="M-13.5,76.6C5.4,76.6,-13.5,-76.6,13.5,-76.6" ed:parentid="102" fill="none" stroke-linejoin="round"/><path stroke="#696969" transform="matrix(1,0,0,1,594,52)" ed:tosuperid="112" id="113" stroke-linecap="round" d="M-13.5,7.5C-0.9,7.5,1.3,-7.5,13.5,-7.5" ed:parentid="108" fill="none" stroke-linejoin="round"/><path stroke="#696969" transform="matrix(1,0,0,1,594,67)" ed:tosuperid="114" id="115" stroke-linecap="round" d="M-13.5,-7.5C-0.9,-7.5,1.3,7.5,13.5,7.5" ed:parentid="108" fill="none" stroke-linejoin="round"/><path stroke="#696969" transform="matrix(1,0,0,1,514,120)" ed:tosuperid="116" id="117" stroke-linecap="round" d="M-13.5,15C0.7,15,-2.6,-15,13.5,-15" ed:parentid="110" fill="none" stroke-linejoin="round"/><path stroke="#696969" transform="matrix(1,0,0,1,714,105)" ed:tosuperid="118" id="119" stroke-linecap="round" d="M-13.5,0C-2.7,0,5.4,0,13.5,0" ed:parentid="116" fill="none" stroke-linejoin="round"/><path stroke="#696969" transform="matrix(1,0,0,1,514,142)" ed:tosuperid="120" id="121" stroke-linecap="round" d="M-13.5,-7.5C-0.9,-7.5,1.3,7.5,13.5,7.5" ed:parentid="110" fill="none" stroke-linejoin="round"/><path stroke="#696969" transform="matrix(1,0,0,1,780,142)" ed:tosuperid="122" id="123" stroke-linecap="round" d="M-13.5,7.5C-0.9,7.5,1.3,-7.5,13.5,-7.5" ed:parentid="120" fill="none" stroke-linejoin="round"/><path stroke="#696969" transform="matrix(1,0,0,1,780,157)" ed:tosuperid="124" id="125" stroke-linecap="round" d="M-13.5,-7.5C-0.9,-7.5,1.3,7.5,13.5,7.5" ed:parentid="120" fill="none" stroke-linejoin="round"/><path stroke="#696969" transform="matrix(1,0,0,1,442,249)" ed:tosuperid="126" id="127" stroke-linecap="round" d="M-13.5,39.1C4.7,39.1,-11.8,-39.1,13.5,-39.1" ed:parentid="102" fill="none" stroke-linejoin="round"/><path stroke="#696969" transform="matrix(1,0,0,1,527,202)" ed:tosuperid="128" id="129" stroke-linecap="round" d="M-13.5,7.5C-0.9,7.5,1.3,-7.5,13.5,-7.5" ed:parentid="126" fill="none" stroke-linejoin="round"/><path stroke="#696969" transform="matrix(1,0,0,1,527,217)" ed:tosuperid="130" id="131" stroke-linecap="round" d="M-13.5,-7.5C-0.9,-7.5,1.3,7.5,13.5,7.5" ed:parentid="126" fill="none" stroke-linejoin="round"/><path stroke="#696969" transform="matrix(1,0,0,1,442,309)" ed:tosuperid="132" id="133" stroke-linecap="round" d="M-13.5,-20.9C1.9,-20.9,-5.4,20.9,13.5,20.9" ed:parentid="102" fill="none" stroke-linejoin="round"/><path stroke="#696969" transform="matrix(1,0,0,1,540,292)" ed:tosuperid="134" id="135" stroke-linecap="round" d="M-13.5,37.5C4.5,37.5,-11.4,-37.5,13.5,-37.5" ed:parentid="132" fill="none" stroke-linejoin="round"/><path stroke="#696969" transform="matrix(1,0,0,1,540,322)" ed:tosuperid="136" id="137" stroke-linecap="round" d="M-13.5,7.5C-0.9,7.5,1.3,-7.5,13.5,-7.5" ed:parentid="132" fill="none" stroke-linejoin="round"/><path stroke="#696969" transform="matrix(1,0,0,1,540,360)" ed:tosuperid="138" id="139" stroke-linecap="round" d="M-13.5,-30C3.5,-30,-9.1,30,13.5,30" ed:parentid="132" fill="none" stroke-linejoin="round"/><path stroke="#696969" transform="matrix(1,0,0,1,612,300)" ed:tosuperid="140" id="141" stroke-linecap="round" d="M-13.5,15C0.7,15,-2.6,-15,13.5,-15" ed:parentid="136" fill="none" stroke-linejoin="round"/><path stroke="#696969" transform="matrix(1,0,0,1,612,315)" ed:tosuperid="142" id="143" stroke-linecap="round" d="M-13.5,0C-2.7,0,5.4,0,13.5,0" ed:parentid="136" fill="none" stroke-linejoin="round"/><path stroke="#696969" transform="matrix(1,0,0,1,612,330)" ed:tosuperid="144" id="145" stroke-linecap="round" d="M-13.5,-15C0.7,-15,-2.6,15,13.5,15" ed:parentid="136" fill="none" stroke-linejoin="round"/><path stroke="#696969" transform="matrix(1,0,0,1,665,382)" ed:tosuperid="146" id="147" stroke-linecap="round" d="M-13.5,7.5C-0.9,7.5,1.3,-7.5,13.5,-7.5" ed:parentid="138" fill="none" stroke-linejoin="round"/><path stroke="#696969" transform="matrix(1,0,0,1,665,397)" ed:tosuperid="148" id="149" stroke-linecap="round" d="M-13.5,-7.5C-0.9,-7.5,1.3,7.5,13.5,7.5" ed:parentid="138" fill="none" stroke-linejoin="round"/><path stroke="#696969" transform="matrix(1,0,0,1,442,391)" ed:tosuperid="150" id="151" stroke-linecap="round" d="M-13.5,-103.4C5.4,-103.4,-13.5,103.4,13.5,103.4" ed:parentid="102" fill="none" stroke-linejoin="round"/><path stroke="#696969" transform="matrix(1,0,0,1,553,465)" ed:tosuperid="152" id="153" stroke-linecap="round" d="M-13.5,30C3.5,30,-9.1,-30,13.5,-30" ed:parentid="150" fill="none" stroke-linejoin="round"/><path stroke="#696969" transform="matrix(1,0,0,1,553,480)" ed:tosuperid="154" id="155" stroke-linecap="round" d="M-13.5,15C0.7,15,-2.6,-15,13.5,-15" ed:parentid="150" fill="none" stroke-linejoin="round"/><path stroke="#696969" transform="matrix(1,0,0,1,678,435)" ed:tosuperid="156" id="157" stroke-linecap="round" d="M-13.5,0C-2.7,0,5.4,0,13.5,0" ed:parentid="152" fill="none" stroke-linejoin="round"/><path stroke="#696969" transform="matrix(1,0,0,1,553,495)" ed:tosuperid="158" id="159" stroke-linecap="round" d="M-13.5,0C-2.7,0,5.4,0,13.5,0" ed:parentid="150" fill="none" stroke-linejoin="round"/><path stroke="#696969" transform="matrix(1,0,0,1,553,510)" ed:tosuperid="160" id="161" stroke-linecap="round" d="M-13.5,-15C0.7,-15,-2.6,15,13.5,15" ed:parentid="150" fill="none" stroke-linejoin="round"/><path stroke="#696969" transform="matrix(1,0,0,1,705,525)" ed:tosuperid="162" id="163" stroke-linecap="round" d="M-13.5,0C-2.7,0,5.4,0,13.5,0" ed:parentid="160" fill="none" stroke-linejoin="round"/><path stroke="#696969" transform="matrix(1,0,0,1,909,525)" ed:tosuperid="164" id="165" stroke-linecap="round" d="M-13.5,0C-2.7,0,5.4,0,13.5,0" ed:parentid="162" fill="none" stroke-linejoin="round"/><path stroke="#696969" transform="matrix(1,0,0,1,553,525)" ed:tosuperid="166" id="167" stroke-linecap="round" d="M-13.5,-30C3.5,-30,-9.1,30,13.5,30" ed:parentid="150" fill="none" stroke-linejoin="round"/><path stroke="#696969" transform="matrix(1,0,0,1,410,629)" ed:tosuperid="168" id="169" stroke-linecap="round" d="M-13.5,-5.9C-1.3,-5.9,2.2,5.9,13.5,5.9" ed:parentid="104" fill="none" stroke-linejoin="round"/><path stroke="#696969" transform="matrix(1,0,0,1,522,623)" ed:tosuperid="170" id="171" stroke-linecap="round" d="M-13.5,12C0.1,12,-1.1,-12,13.5,-12" ed:parentid="168" fill="none" stroke-linejoin="round"/><path stroke="#696969" transform="matrix(1,0,0,1,522,643)" ed:tosuperid="172" id="173" stroke-linecap="round" d="M-13.5,-7.5C-0.9,-7.5,1.3,7.5,13.5,7.5" ed:parentid="168" fill="none" stroke-linejoin="round"/><path stroke="#696969" transform="matrix(1,0,0,1,620,655)" ed:tosuperid="174" id="175" stroke-linecap="round" d="M-13.5,-4.5C-1.6,-4.5,2.9,4.5,13.5,4.5" ed:parentid="172" fill="none" stroke-linejoin="round"/><g transform="matrix(1,0,0,1,23,312)" id="101" ed:width="239.6666666666667" ed:height="56" ed:topictype="mainidea" ed:layout="rightmap"><path stroke="#435fbc" d="M4,0L235.7,0C238.4,0,239.7,1.3,239.7,4L239.7,52C239.7,54.7,238.4,56,235.7,56L4,56C1.3,56,0,54.7,0,52L0,4C0,1.3,1.3,0,4,0z" stroke-width="3" fill="#435fbc" stroke-linejoin="round"/><text class="st1"><tspan x="21" y="34.1" style="white-space:pre">对象-创建、使用、销毁</tspan></text></g><g transform="matrix(1,0,0,1,326,269)" id="102" ed:width="103" ed:parentid="101" ed:height="36.66666666666667"><path stroke="#ebecf3" d="M4,0L99,0C101.7,0,103,1.3,103,4L103,32.7C103,35.4,101.7,36.7,99,36.7L4,36.7C1.3,36.7,0,35.4,0,32.7L0,4C0,1.3,1.3,0,4,0z" fill="#ebecf3" stroke-linejoin="round"/><text class="st2"><tspan x="18" y="23.5" style="white-space:pre">创建对象</tspan></text></g><g transform="matrix(1,0,0,1,326,605)" id="104" ed:width="71" ed:parentid="101" ed:height="36.66666666666667"><path stroke="#ebecf3" d="M4,0L67,0C69.7,0,71,1.3,71,4L71,32.7C71,35.4,69.7,36.7,67,36.7L4,36.7C1.3,36.7,0,35.4,0,32.7L0,4C0,1.3,1.3,0,4,0z" fill="#ebecf3" stroke-linejoin="round"/><text class="st2"><tspan x="18" y="23.5" style="white-space:pre">销毁</tspan></text></g><g transform="matrix(1,0,0,1,456,36)" id="108" ed:width="124.6666666666667" ed:parentid="102" ed:height="23.5"><path stroke="#696969" d="M0,23.5L124.7,23.5" fill="none" stroke-linejoin="round"/><text class="st3"><tspan x="8" y="15.4" style="white-space:pre">类实例转化为对象</tspan></text></g><g transform="matrix(1,0,0,1,456,111)" id="110" ed:width="44.66666666666667" ed:parentid="102" ed:height="23.5"><path stroke="#696969" d="M0,23.5L44.7,23.5" fill="none" stroke-linejoin="round"/><text class="st3"><tspan x="8" y="15.4" style="white-space:pre">声明</tspan></text></g><g transform="matrix(1,0,0,1,607,21)" id="112" ed:width="150.6666666666667" ed:parentid="108" ed:height="23.5"><path stroke="#696969" d="M0,23.5L150.7,23.5" fill="none" stroke-linejoin="round"/><text class="st3"><tspan x="8" y="15.4" style="white-space:pre">实例方法--> 对象方法</tspan></text></g><g transform="matrix(1,0,0,1,607,51)" id="114" ed:width="156.6666666666667" ed:parentid="108" ed:height="23.5"><path stroke="#696969" d="M0,23.5L156.7,23.5" fill="none" stroke-linejoin="round"/><text class="st3"><tspan x="8" y="15.4" style="white-space:pre">实例变量---> 对象变量</tspan></text></g><g transform="matrix(1,0,0,1,527,81)" id="116" ed:width="173.3333333333333" ed:parentid="110" ed:height="23.5"><path stroke="#696969" d="M0,23.5L173.3,23.5" fill="none" stroke-linejoin="round"/><text class="st3"><tspan x="8" y="15.4" style="white-space:pre">语法： type ObjectName</tspan></text></g><g transform="matrix(1,0,0,1,728,81)" id="118" ed:width="128.6666666666667" ed:parentid="116" ed:height="23.5"><path stroke="#696969" d="M0,23.5L128.7,23.5" fill="none" stroke-linejoin="round"/><text class="st3"><tspan x="8" y="15.4" style="white-space:pre">eg： String name</tspan></text></g><g transform="matrix(1,0,0,1,527,126)" id="120" ed:width="238.6666666666667" ed:parentid="110" ed:height="23.5"><path stroke="#696969" d="M0,23.5L238.7,23.5" fill="none" stroke-linejoin="round"/><text class="st3"><tspan x="8" y="15.4" style="white-space:pre">实例化： name = new String("pd");</tspan></text></g><g transform="matrix(1,0,0,1,793,111)" id="122" ed:width="128" ed:parentid="120" ed:height="23.5"><path stroke="#696969" d="M0,23.5L128,23.5" fill="none" stroke-linejoin="round"/><text class="st3"><tspan x="8" y="15.4" style="white-space:pre">new 分配内存空间</tspan></text></g><g transform="matrix(1,0,0,1,793,141)" id="124" ed:width="178" ed:parentid="120" ed:height="23.5"><path stroke="#696969" d="M0,23.5L178,23.5" fill="none" stroke-linejoin="round"/><text class="st3"><tspan x="8" y="15.4" style="white-space:pre">再调用构造方法初始化对象</tspan></text></g><g transform="matrix(1,0,0,1,456,186)" id="126" ed:width="58" ed:parentid="102" ed:height="23.5"><path stroke="#696969" d="M0,23.5L58,23.5" fill="none" stroke-linejoin="round"/><text class="st3"><tspan x="8" y="15.4" style="white-space:pre">空对象</tspan></text></g><g transform="matrix(1,0,0,1,541,171)" id="128" ed:width="238.6666666666667" ed:parentid="126" ed:height="23.5"><path stroke="#696969" d="M0,23.5L238.7,23.5" fill="none" stroke-linejoin="round"/><text class="st3"><tspan x="8" y="15.4" style="white-space:pre">引用变量 没有通过new 分配内存空间</tspan></text></g><g transform="matrix(1,0,0,1,541,201)" id="130" ed:width="84.66666666666667" ed:parentid="126" ed:height="23.5"><path stroke="#696969" d="M0,23.5L84.7,23.5" fill="none" stroke-linejoin="round"/><text class="st3"><tspan x="8" y="15.4" style="white-space:pre">关键字 null</tspan></text></g><g transform="matrix(1,0,0,1,456,306)" id="132" ed:width="71.33333333333334" ed:parentid="102" ed:height="23.5"><path stroke="#696969" d="M0,23.5L71.3,23.5" fill="none" stroke-linejoin="round"/><text class="st3"><tspan x="8" y="15.4" style="white-space:pre">构造方法</tspan></text></g><g transform="matrix(1,0,0,1,554,231)" id="134" ed:width="111.3333333333333" ed:parentid="132" ed:height="23.5"><path stroke="#696969" d="M0,23.5L111.3,23.5" fill="none" stroke-linejoin="round"/><text class="st3"><tspan x="8" y="15.4" style="white-space:pre">类中的特殊方法</tspan></text></g><g transform="matrix(1,0,0,1,554,291)" id="136" ed:width="44.66666666666667" ed:parentid="132" ed:height="23.5"><path stroke="#696969" d="M0,23.5L44.7,23.5" fill="none" stroke-linejoin="round"/><text class="st3"><tspan x="8" y="15.4" style="white-space:pre">特点</tspan></text></g><g transform="matrix(1,0,0,1,554,366)" id="138" ed:width="98" ed:parentid="132" ed:height="23.5"><path stroke="#696969" d="M0,23.5L98,23.5" fill="none" stroke-linejoin="round"/><text class="st3"><tspan x="8" y="15.4" style="white-space:pre">默认构造方法</tspan></text></g><g transform="matrix(1,0,0,1,626,261)" id="140" ed:width="151.3333333333333" ed:parentid="136" ed:height="23.5"><path stroke="#696969" d="M0,23.5L151.3,23.5" fill="none" stroke-linejoin="round"/><text class="st3"><tspan x="8" y="15.4" style="white-space:pre">构造方法名与类名相同</tspan></text></g><g transform="matrix(1,0,0,1,626,291)" id="142" ed:width="130" ed:parentid="136" ed:height="23.5"><path stroke="#696969" d="M0,23.5L130,23.5" fill="none" stroke-linejoin="round"/><text class="st3"><tspan x="8" y="15.4" style="white-space:pre">无返回值 包括void</tspan></text></g><g transform="matrix(1,0,0,1,626,321)" id="144" ed:width="181.3333333333333" ed:parentid="136" ed:height="23.5"><path stroke="#696969" d="M0,23.5L181.3,23.5" fill="none" stroke-linejoin="round"/><text class="st3"><tspan x="8" y="15.4" style="white-space:pre">只能与new 运算符结合使用</tspan></text></g><g transform="matrix(1,0,0,1,679,351)" id="146" ed:width="394" ed:parentid="138" ed:height="23.5"><path stroke="#696969" d="M0,23.5L394,23.5" fill="none" stroke-linejoin="round"/><text class="st3"><tspan x="8" y="15.4" style="white-space:pre">java 虚拟机为没有构造方法的类提供一个无参数的默认构造方法</tspan></text></g><g transform="matrix(1,0,0,1,679,381)" id="148" ed:width="150.6666666666667" ed:parentid="138" ed:height="23.5"><path stroke="#696969" d="M0,23.5L150.7,23.5" fill="none" stroke-linejoin="round"/><text class="st3"><tspan x="8" y="15.4" style="white-space:pre">public className() {}</tspan></text></g><g transform="matrix(1,0,0,1,456,471)" id="150" ed:width="84" ed:parentid="102" ed:height="23.5"><path stroke="#696969" d="M0,23.5L84,23.5" fill="none" stroke-linejoin="round"/><text class="st3"><tspan x="8" y="15.4" style="white-space:pre">this 关键字</tspan></text></g><g transform="matrix(1,0,0,1,567,411)" id="152" ed:width="98" ed:parentid="150" ed:height="23.5"><path stroke="#696969" d="M0,23.5L98,23.5" fill="none" stroke-linejoin="round"/><text class="st3"><tspan x="8" y="15.4" style="white-space:pre">指向对象本身</tspan></text></g><g transform="matrix(1,0,0,1,567,441)" id="154" ed:width="98" ed:parentid="150" ed:height="23.5"><path stroke="#696969" d="M0,23.5L98,23.5" fill="none" stroke-linejoin="round"/><text class="st3"><tspan x="8" y="15.4" style="white-space:pre">调用实例变量</tspan></text></g><g transform="matrix(1,0,0,1,692,411)" id="156" ed:width="324" ed:parentid="152" ed:height="23.5"><path stroke="#696969" d="M0,23.5L324,23.5" fill="none" stroke-linejoin="round"/><text class="st3"><tspan x="8" y="15.4" style="white-space:pre">一个类可通过this 来获得一个代表它自身的对象变量</tspan></text></g><g transform="matrix(1,0,0,1,567,471)" id="158" ed:width="98" ed:parentid="150" ed:height="23.5"><path stroke="#696969" d="M0,23.5L98,23.5" fill="none" stroke-linejoin="round"/><text class="st3"><tspan x="8" y="15.4" style="white-space:pre">调用实例方法</tspan></text></g><g transform="matrix(1,0,0,1,567,501)" id="160" ed:width="124.6666666666667" ed:parentid="150" ed:height="23.5"><path stroke="#696969" d="M0,23.5L124.7,23.5" fill="none" stroke-linejoin="round"/><text class="st3"><tspan x="8" y="15.4" style="white-space:pre">调用其它构造函数</tspan></text></g><g transform="matrix(1,0,0,1,718,501)" id="162" ed:width="177.3333333333333" ed:parentid="160" ed:height="23.5"><path stroke="#696969" d="M0,23.5L177.3,23.5" fill="none" stroke-linejoin="round"/><text class="st3"><tspan x="8" y="15.4" style="white-space:pre">this 语句一定是第一条语句</tspan></text></g><g transform="matrix(1,0,0,1,923,501)" id="164" ed:width="213.3333333333333" ed:parentid="162" ed:height="23.5"><path stroke="#696969" d="M0,23.5L213.3,23.5" fill="none" stroke-linejoin="round"/><text class="st3"><tspan x="8" y="15.4" style="white-space:pre">在继承中super可能是第一条语句</tspan></text></g><g transform="matrix(1,0,0,1,567,531)" id="166" ed:width="470.6666666666667" ed:parentid="150" ed:height="23.5"><path stroke="#696969" d="M0,23.5L470.7,23.5" fill="none" stroke-linejoin="round"/><text class="st3"><tspan x="8" y="15.4" style="white-space:pre">参考： https://www.runoob.com/w3cnote/the-different-this-super.html</tspan></text></g><g transform="matrix(1,0,0,1,424,612)" id="168" ed:width="84.66666666666667" ed:parentid="104" ed:height="23.5"><path stroke="#696969" d="M0,23.5L84.7,23.5" fill="none" stroke-linejoin="round"/><text class="st3"><tspan x="8" y="15.4" style="white-space:pre">垃圾回收器</tspan></text></g><g transform="matrix(1,0,0,1,535,588)" id="170" ed:width="98" ed:parentid="168" ed:height="23.5"><path stroke="#696969" d="M0,23.5L98,23.5" fill="none" stroke-linejoin="round"/><text class="st3"><tspan x="8" y="15.4" style="white-space:pre">收集然后释放</tspan></text></g><g transform="matrix(1,0,0,1,535,627)" id="172" ed:width="71.33333333333334" ed:parentid="168" ed:height="23.5"><path stroke="#696969" d="M0,23.5L71.3,23.5" fill="none" stroke-linejoin="round"/><text class="st3"><tspan x="8" y="15.4" style="white-space:pre">工作原理</tspan></text></g><g transform="matrix(1,0,0,1,634,618)" id="174" ed:width="514" ed:parentid="172" ed:height="41.5"><path stroke="#696969" d="M0,41.5L514,41.5" fill="none" stroke-linejoin="round"/><text class="st3"><tspan x="8" y="15.4" style="white-space:pre">一个对象的引用不存在时， 认为该对象不在需要，自动扫描对象的动态内存区，将</tspan><tspan x="8" y="33.4" style="white-space:pre">无用引用的对象作为垃圾收集并释放</tspan></text></g><symbol id="plus"><path d="M11,6C11,8.8,8.8,11,6,11C3.2,11,1,8.8,1,6C1,3.2,3.2,1,6,1C8.8,1,11,3.2,11,6z" fill="url(#lg1)"/><path stroke="#46a000" d="M11,6C11,8.8,8.8,11,6,11C3.2,11,1,8.8,1,6C1,3.2,3.2,1,6,1C8.8,1,11,3.2,11,6zM3,6L9,6M6,3L6,9" stroke-width="0.7" fill="none"/></symbol><symbol id="minus"><path d="M11,6C11,8.8,8.8,11,6,11C3.2,11,1,8.8,1,6C1,3.2,3.2,1,6,1C8.8,1,11,3.2,11,6z" fill="url(#lg1)"/><path stroke="#46a000" d="M11,6C11,8.8,8.8,11,6,11C3.2,11,1,8.8,1,6C1,3.2,3.2,1,6,1C8.8,1,11,3.2,11,6zM3,6L9,6" stroke-width="0.7" fill="none"/></symbol><g transform="translate(264,334)" ed:togtopicid="101"><use xlink:href="#minus"/></g><g transform="translate(430,282)" ed:togtopicid="102"><use xlink:href="#minus"/></g><g transform="translate(398,617)" ed:togtopicid="104"><use xlink:href="#minus"/></g><g transform="translate(581,42)" ed:togtopicid="108"><use xlink:href="#minus"/></g><g transform="translate(501,117)" ed:togtopicid="110"><use xlink:href="#minus"/></g><g transform="translate(702,87)" ed:togtopicid="116"><use xlink:href="#minus"/></g><g transform="translate(767,132)" ed:togtopicid="120"><use xlink:href="#minus"/></g><g transform="translate(515,192)" ed:togtopicid="126"><use xlink:href="#minus"/></g><g transform="translate(528,312)" ed:togtopicid="132"><use xlink:href="#minus"/></g><g transform="translate(600,297)" ed:togtopicid="136"><use xlink:href="#minus"/></g><g transform="translate(653,372)" ed:togtopicid="138"><use xlink:href="#minus"/></g><g transform="translate(541,477)" ed:togtopicid="150"><use xlink:href="#minus"/></g><g transform="translate(666,417)" ed:togtopicid="152"><use xlink:href="#minus"/></g><g transform="translate(692,507)" ed:togtopicid="160"><use xlink:href="#minus"/></g><g transform="translate(897,507)" ed:togtopicid="162"><use xlink:href="#minus"/></g><g transform="translate(509,617)" ed:togtopicid="168"><use xlink:href="#minus"/></g><g transform="translate(608,632)" ed:togtopicid="172"><use xlink:href="#minus"/></g></svg>