<svg ed:name="Page-1" ed:vSpacing="30" id="page100" height="651" xmlns:ed="https://www.edrawsoft.cn/xml/2017/SVGExtensions/" xmlns="http://www.w3.org/2000/svg" xmlns:ev="http://www.w3.org/2001/xml-events" width="811" xmlns:xlink="http://www.w3.org/1999/xlink" ed:hSpacing="30" viewBox="0 0 811 651"><style type="text/css"><![CDATA[
g[ed\:togtopicid],g[ed\:hyperlink],g[ed\:comment],g[ed\:note] {cursor:pointer;}
g[id] {-moz-user-select: none;-ms-user-select: none;user-select: none;}
svg text::selection,svg tspan::selection{background-color: #4285f4;color: #ffffff;fill: #ffffff;}
.st2 {fill:#303030;font-family:微软雅黑;font-size:12pt}
.st3 {fill:#454545;font-family:微软雅黑;font-size:10pt}
.st4 {fill:#ffffff;font-family:微软雅黑;font-size:11pt}
.st1 {fill:#ffffff;font-family:微软雅黑;font-size:14pt}
]]></style><defs><linearGradient id="lg1" x2="0%" y2="100%" y1="0%" x1="0%"><stop offset="0" stop-color="#ffffff"/><stop offset="0.25" stop-color="#f0f5f0"/><stop offset="0.75" stop-color="#e1ebe1"/><stop offset="1" stop-color="#c8d7c8"/></linearGradient></defs><rect y="0" fill="#ffffff" height="651" width="811" x="0"/><path stroke="#696969" transform="matrix(1,0,0,1,370,169)" fill="none" id="103" stroke-linejoin="round" ed:parentid="101" stroke-linecap="round" d="M-29.1,63.3C0.6,12.1,2.6,-91.3,70.8,-91.3"/><path stroke="#696969" transform="matrix(1,0,0,1,370,227)" fill="none" id="105" stroke-linejoin="round" ed:tosuperid="104" ed:parentid="101" stroke-linecap="round" d="M-4.6,5C17.4,-13,37.4,-33,70.8,-33"/><path stroke="#696969" transform="matrix(1,0,0,1,370,266)" fill="none" id="107" stroke-linejoin="round" ed:tosuperid="106" ed:parentid="101" stroke-linecap="round" d="M7.8,0.3C29.8,3.2,50.3,6,70.8,6"/><path stroke="#696969" transform="matrix(1,0,0,1,370,301)" fill="none" id="109" stroke-linejoin="round" ed:tosuperid="108" ed:parentid="101" stroke-linecap="round" d="M-11.8,-12.8C12.2,10.8,31.5,40.8,70.8,40.8"/><path stroke="#696969" transform="matrix(1,0,0,1,525,61)" fill="none" id="111" stroke-linejoin="round" ed:tosuperid="110" ed:parentid="102" stroke-linecap="round" d="M-13.5,16.6C1.1,16.6,-3.4,-16.6,13.5,-16.6"/><path stroke="#696969" transform="matrix(1,0,0,1,525,76)" fill="none" id="113" stroke-linejoin="round" ed:tosuperid="112" ed:parentid="102" stroke-linecap="round" d="M-13.5,1.6C-2.3,1.6,4.5,-1.6,13.5,-1.6"/><path stroke="#696969" transform="matrix(1,0,0,1,525,91)" fill="none" id="115" stroke-linejoin="round" ed:tosuperid="114" ed:parentid="102" stroke-linecap="round" d="M-13.5,-13.4C0.4,-13.4,-1.8,13.4,13.5,13.4"/><path stroke="#696969" transform="matrix(1,0,0,1,525,106)" fill="none" id="117" stroke-linejoin="round" ed:tosuperid="116" ed:parentid="102" stroke-linecap="round" d="M-13.5,-28.4C3.3,-28.4,-8.5,28.4,13.5,28.4"/><path stroke="#696969" transform="matrix(1,0,0,1,525,193)" fill="none" id="123" stroke-linejoin="round" ed:tosuperid="122" ed:parentid="104" stroke-linecap="round" d="M-13.5,1.6C-2.3,1.6,4.5,-1.6,13.5,-1.6"/><path stroke="#696969" transform="matrix(1,0,0,1,525,208)" fill="none" id="125" stroke-linejoin="round" ed:tosuperid="124" ed:parentid="104" stroke-linecap="round" d="M-13.5,-13.4C0.4,-13.4,-1.8,13.4,13.5,13.4"/><path stroke="#696969" transform="matrix(1,0,0,1,525,278)" fill="none" id="127" stroke-linejoin="round" ed:tosuperid="126" ed:parentid="106" stroke-linecap="round" d="M-13.5,-5.9C-1.3,-5.9,2.2,5.9,13.5,5.9"/><path stroke="#696969" transform="matrix(1,0,0,1,598,284)" fill="none" id="129" stroke-linejoin="round" ed:tosuperid="128" ed:parentid="126" stroke-linecap="round" d="M-13.5,0C-2.7,0,5.4,0,13.5,0"/><path stroke="#696969" transform="matrix(1,0,0,1,525,348)" fill="none" id="131" stroke-linejoin="round" ed:tosuperid="130" ed:parentid="108" stroke-linecap="round" d="M-13.5,-5.9C-1.3,-5.9,2.2,5.9,13.5,5.9"/><path stroke="#696969" transform="matrix(1,0,0,1,370,371)" fill="none" id="135" stroke-linejoin="round" ed:tosuperid="134" ed:parentid="101" stroke-linecap="round" d="M-31.6,-82.5C-0.2,-23,-6.6,110.5,70.8,110.5"/><path stroke="#696969" transform="matrix(1,0,0,1,370,336)" fill="none" id="137" stroke-linejoin="round" ed:tosuperid="136" ed:parentid="101" stroke-linecap="round" d="M-26.1,-47.7C2.2,-3.9,10.7,75.7,70.8,75.7"/><path stroke="#696969" transform="matrix(1,0,0,1,379,557)" fill="none" id="149" stroke-linejoin="round" ed:tosuperid="148" ed:parentid="147" stroke-linecap="round" d="M-13.5,16.6C1.1,16.6,-3.4,-16.6,13.5,-16.6"/><path stroke="#696969" transform="matrix(1,0,0,1,379,572)" fill="none" id="151" stroke-linejoin="round" ed:tosuperid="150" ed:parentid="147" stroke-linecap="round" d="M-13.5,1.6C-2.3,1.6,4.5,-1.6,13.5,-1.6"/><path stroke="#696969" transform="matrix(1,0,0,1,379,587)" fill="none" id="153" stroke-linejoin="round" ed:tosuperid="152" ed:parentid="147" stroke-linecap="round" d="M-13.5,-13.4C0.4,-13.4,-1.8,13.4,13.5,13.4"/><path stroke="#696969" transform="matrix(1,0,0,1,379,602)" fill="none" id="163" stroke-linejoin="round" ed:tosuperid="162" ed:parentid="147" stroke-linecap="round" d="M-13.5,-28.4C3.3,-28.4,-8.5,28.4,13.5,28.4"/><g ed:height="56" transform="matrix(1,0,0,1,221,232)" id="101" ed:layout="rightmap" ed:width="157" ed:topictype="mainidea"><path stroke="#435fbc" fill="#435fbc" stroke-linejoin="round" stroke-width="3" d="M4,0L153,0C155.7,0,157,1.3,157,4L157,52C157,54.7,155.7,56,153,56L4,56C1.3,56,0,54.7,0,52L0,4C0,1.3,1.3,0,4,0z"/><text class="st1"><tspan y="34.1" style="white-space:pre" x="21">基本数据类型</tspan></text></g><g ed:height="36.66666666666667" transform="matrix(1,0,0,1,441,59)" id="102" ed:parentid="101" ed:width="71"><path stroke="#ebecf3" fill="#ebecf3" stroke-linejoin="round" d="M4,0L67,0C69.7,0,71,1.3,71,4L71,32.7C71,35.4,69.7,36.7,67,36.7L4,36.7C1.3,36.7,0,35.4,0,32.7L0,4C0,1.3,1.3,0,4,0z"/><text class="st2"><tspan y="23.5" style="white-space:pre" x="18">整型</tspan></text></g><g ed:height="36.66666666666667" transform="matrix(1,0,0,1,441,176)" id="104" ed:parentid="101" ed:width="71"><path stroke="#ebecf3" fill="#ebecf3" stroke-linejoin="round" d="M4,0L67,0C69.7,0,71,1.3,71,4L71,32.7C71,35.4,69.7,36.7,67,36.7L4,36.7C1.3,36.7,0,35.4,0,32.7L0,4C0,1.3,1.3,0,4,0z"/><text class="st2"><tspan y="23.5" style="white-space:pre" x="18">浮点</tspan></text></g><g ed:height="36.66666666666667" transform="matrix(1,0,0,1,441,254)" id="106" ed:parentid="101" ed:width="71"><path stroke="#ebecf3" fill="#ebecf3" stroke-linejoin="round" d="M4,0L67,0C69.7,0,71,1.3,71,4L71,32.7C71,35.4,69.7,36.7,67,36.7L4,36.7C1.3,36.7,0,35.4,0,32.7L0,4C0,1.3,1.3,0,4,0z"/><text class="st2"><tspan y="23.5" style="white-space:pre" x="18">字符</tspan></text></g><g ed:height="36.66666666666667" transform="matrix(1,0,0,1,441,324)" id="108" ed:parentid="101" ed:width="71"><path stroke="#ebecf3" fill="#ebecf3" stroke-linejoin="round" d="M4,0L67,0C69.7,0,71,1.3,71,4L71,32.7C71,35.4,69.7,36.7,67,36.7L4,36.7C1.3,36.7,0,35.4,0,32.7L0,4C0,1.3,1.3,0,4,0z"/><text class="st2"><tspan y="23.5" style="white-space:pre" x="18">布尔</tspan></text></g><g ed:height="23.5" transform="matrix(1,0,0,1,539,21)" id="110" ed:parentid="102" ed:width="46"><path stroke="#696969" fill="none" stroke-linejoin="round" d="M0,23.5L46,23.5"/><text class="st3"><tspan y="15.4" style="white-space:pre" x="8">byte</tspan></text></g><g ed:height="23.5" transform="matrix(1,0,0,1,539,51)" id="112" ed:parentid="102" ed:width="50.66666666666666"><path stroke="#696969" fill="none" stroke-linejoin="round" d="M0,23.5L50.7,23.5"/><text class="st3"><tspan y="15.4" style="white-space:pre" x="8">short</tspan></text></g><g ed:height="23.5" transform="matrix(1,0,0,1,539,81)" id="114" ed:parentid="102" ed:width="34"><path stroke="#696969" fill="none" stroke-linejoin="round" d="M0,23.5L34,23.5"/><text class="st3"><tspan y="15.4" style="white-space:pre" x="8">int</tspan></text></g><g ed:height="23.5" transform="matrix(1,0,0,1,539,111)" id="116" ed:parentid="102" ed:width="46.66666666666666"><path stroke="#696969" fill="none" stroke-linejoin="round" d="M0,23.5L46.7,23.5"/><text class="st3"><tspan y="15.4" style="white-space:pre" x="8">long</tspan></text></g><g ed:height="23.5" transform="matrix(1,0,0,1,539,168)" id="122" ed:parentid="104" ed:width="46.66666666666666"><path stroke="#696969" fill="none" stroke-linejoin="round" d="M0,23.5L46.7,23.5"/><text class="st3"><tspan y="15.4" style="white-space:pre" x="8">float</tspan></text></g><g ed:height="23.5" transform="matrix(1,0,0,1,539,198)" id="124" ed:parentid="104" ed:width="62.66666666666666"><path stroke="#696969" fill="none" stroke-linejoin="round" d="M0,23.5L62.7,23.5"/><text class="st3"><tspan y="15.4" style="white-space:pre" x="8">double</tspan></text></g><g ed:height="23.5" transform="matrix(1,0,0,1,539,261)" id="126" ed:parentid="106" ed:width="45.33333333333333"><path stroke="#696969" fill="none" stroke-linejoin="round" d="M0,23.5L45.3,23.5"/><text class="st3"><tspan y="15.4" style="white-space:pre" x="7">char</tspan></text></g><g ed:height="23.5" transform="matrix(1,0,0,1,611,261)" id="128" ed:parentid="126" ed:width="179.3333333333333"><path stroke="#696969" fill="none" stroke-linejoin="round" d="M0,23.5L179.3,23.5"/><text class="st3"><tspan y="15.4" style="white-space:pre" x="8">eg: char charName = 'A' ;</tspan></text></g><g ed:height="23.5" transform="matrix(1,0,0,1,539,330)" id="130" ed:parentid="108" ed:width="70"><path stroke="#696969" fill="none" stroke-linejoin="round" d="M0,23.5L70,23.5"/><text class="st3"><tspan y="15.4" style="white-space:pre" x="8">boolean</tspan></text></g><g ed:height="36.66666666666667" transform="matrix(1,0,0,1,441,463)" id="134" ed:parentid="101" ed:width="71"><path stroke="#ebecf3" fill="#ebecf3" stroke-linejoin="round" d="M4,0L67,0C69.7,0,71,1.3,71,4L71,32.7C71,35.4,69.7,36.7,67,36.7L4,36.7C1.3,36.7,0,35.4,0,32.7L0,4C0,1.3,1.3,0,4,0z"/><text class="st2"><tspan y="23.5" style="white-space:pre" x="18">主题</tspan></text></g><g ed:height="36.66666666666667" transform="matrix(1,0,0,1,441,393)" id="136" ed:parentid="101" ed:width="71"><path stroke="#ebecf3" fill="#ebecf3" stroke-linejoin="round" d="M4,0L67,0C69.7,0,71,1.3,71,4L71,32.7C71,35.4,69.7,36.7,67,36.7L4,36.7C1.3,36.7,0,35.4,0,32.7L0,4C0,1.3,1.3,0,4,0z"/><text class="st2"><tspan y="23.5" style="white-space:pre" x="18">主题</tspan></text></g><g ed:height="36" transform="matrix(1,0,0,1,21,372)" id="142" ed:layout="leftmap" ed:width="97.66666666666666" ed:topictype="floating"><path stroke="#f38590" fill="#f38590" stroke-linejoin="round" d="M4,0L93.7,0C96.4,0,97.7,1.3,97.7,4L97.7,32C97.7,34.7,96.4,36,93.7,36L4,36C1.3,36,0,34.7,0,32L0,4C0,1.3,1.3,0,4,0z"/><text class="st4"><tspan y="22.8" style="white-space:pre" x="18">数据类型</tspan></text></g><g ed:height="36" transform="matrix(1,0,0,1,239,556)" id="147" ed:layout="rightmap" ed:width="127" ed:topictype="floating"><path stroke="#f38590" fill="#f38590" stroke-linejoin="round" d="M4,0L123,0C125.7,0,127,1.3,127,4L127,32C127,34.7,125.7,36,123,36L4,36C1.3,36,0,34.7,0,32L0,4C0,1.3,1.3,0,4,0z"/><text class="st4"><tspan y="22.8" style="white-space:pre" x="18">引用数据类型</tspan></text></g><g ed:height="23.5" transform="matrix(1,0,0,1,393,517)" id="148" ed:parentid="147" ed:width="31.33333333333333"><path stroke="#696969" fill="none" stroke-linejoin="round" d="M0,23.5L31.3,23.5"/><text class="st3"><tspan y="15.4" style="white-space:pre" x="8">类</tspan></text></g><g ed:height="23.5" transform="matrix(1,0,0,1,393,547)" id="150" ed:parentid="147" ed:width="44.66666666666667"><path stroke="#696969" fill="none" stroke-linejoin="round" d="M0,23.5L44.7,23.5"/><text class="st3"><tspan y="15.4" style="white-space:pre" x="8">接口</tspan></text></g><g ed:height="23.5" transform="matrix(1,0,0,1,393,577)" id="152" ed:parentid="147" ed:width="44.66666666666667"><path stroke="#696969" fill="none" stroke-linejoin="round" d="M0,23.5L44.7,23.5"/><text class="st3"><tspan y="15.4" style="white-space:pre" x="8">数组</tspan></text></g><g ed:height="23.5" transform="matrix(1,0,0,1,393,607)" id="162" ed:parentid="147" ed:width="251.3333333333333"><path stroke="#696969" fill="none" stroke-linejoin="round" d="M0,23.5L251.3,23.5"/><text class="st3"><tspan y="15.4" style="white-space:pre" x="8">特点： 使用之前： 需要声明  和 初始化</tspan></text></g><symbol id="plus"><path fill="url(#lg1)" d="M11,6C11,8.8,8.8,11,6,11C3.2,11,1,8.8,1,6C1,3.2,3.2,1,6,1C8.8,1,11,3.2,11,6z"/><path stroke="#46a000" fill="none" stroke-width="0.7" d="M11,6C11,8.8,8.8,11,6,11C3.2,11,1,8.8,1,6C1,3.2,3.2,1,6,1C8.8,1,11,3.2,11,6zM3,6L9,6M6,3L6,9"/></symbol><symbol id="minus"><path fill="url(#lg1)" d="M11,6C11,8.8,8.8,11,6,11C3.2,11,1,8.8,1,6C1,3.2,3.2,1,6,1C8.8,1,11,3.2,11,6z"/><path stroke="#46a000" fill="none" stroke-width="0.7" d="M11,6C11,8.8,8.8,11,6,11C3.2,11,1,8.8,1,6C1,3.2,3.2,1,6,1C8.8,1,11,3.2,11,6zM3,6L9,6"/></symbol><g transform="translate(379,254)" ed:togtopicid="101"><use xlink:href="#minus"/></g><g transform="translate(513,72)" ed:togtopicid="102"><use xlink:href="#minus"/></g><g transform="translate(513,188)" ed:togtopicid="104"><use xlink:href="#minus"/></g><g transform="translate(513,266)" ed:togtopicid="106"><use xlink:href="#minus"/></g><g transform="translate(513,336)" ed:togtopicid="108"><use xlink:href="#minus"/></g><g transform="translate(585,266)" ed:togtopicid="126"><use xlink:href="#minus"/></g><g transform="translate(367,568)" ed:togtopicid="147"><use xlink:href="#minus"/></g></svg>