<svg ed:name="Page-1" ed:vSpacing="30" id="page100" height="381" xmlns:ed="https://www.edrawsoft.cn/xml/2017/SVGExtensions/" xmlns="http://www.w3.org/2000/svg" xmlns:ev="http://www.w3.org/2001/xml-events" width="701" xmlns:xlink="http://www.w3.org/1999/xlink" ed:hSpacing="30" viewBox="0 0 701 381"><style type="text/css"><![CDATA[
g[ed\:togtopicid],g[ed\:hyperlink],g[ed\:comment],g[ed\:note] {cursor:pointer;}
g[id] {-moz-user-select: none;-ms-user-select: none;user-select: none;}
svg text::selection,svg tspan::selection{background-color: #4285f4;color: #ffffff;fill: #ffffff;}
.st2 {fill:#303030;font-family:微软雅黑;font-size:12pt}
.st3 {fill:#454545;font-family:微软雅黑;font-size:10pt}
.st1 {fill:#ffffff;font-family:微软雅黑;font-size:14pt}
]]></style><defs><linearGradient id="lg1" x2="0%" y2="100%" y1="0%" x1="0%"><stop offset="0" stop-color="#ffffff"/><stop offset="0.25" stop-color="#f0f5f0"/><stop offset="0.75" stop-color="#e1ebe1"/><stop offset="1" stop-color="#c8d7c8"/></linearGradient></defs><rect y="0" fill="#ffffff" height="381" width="701" x="0"/><path stroke="#696969" transform="matrix(1,0,0,1,116,127)" fill="none" id="103" stroke-linejoin="round" ed:tosuperid="102" ed:parentid="101" stroke-linecap="round" d="M-16.9,36C1.3,-1.7,6.7,-64,52.1,-64"/><path stroke="#696969" transform="matrix(1,0,0,1,116,173)" fill="none" id="105" stroke-linejoin="round" ed:tosuperid="104" ed:parentid="101" stroke-linecap="round" d="M-10.9,7C9.5,-3.3,26.1,-17.4,52.1,-17.4"/><path stroke="#696969" transform="matrix(1,0,0,1,285,54)" fill="none" id="107" stroke-linejoin="round" ed:tosuperid="106" ed:parentid="102" stroke-linecap="round" d="M-13.5,9.1C-0.6,9.1,0.4,-9.1,13.5,-9.1"/><path stroke="#696969" transform="matrix(1,0,0,1,285,69)" fill="none" id="109" stroke-linejoin="round" ed:tosuperid="108" ed:parentid="102" stroke-linecap="round" d="M-13.5,-5.9C-1.3,-5.9,2.2,5.9,13.5,5.9"/><path stroke="#696969" transform="matrix(1,0,0,1,285,84)" fill="none" id="111" stroke-linejoin="round" ed:tosuperid="110" ed:parentid="102" stroke-linecap="round" d="M-13.5,-20.9C1.9,-20.9,-5.4,20.9,13.5,20.9"/><path stroke="#696969" transform="matrix(1,0,0,1,356,45)" fill="none" id="113" stroke-linejoin="round" ed:tosuperid="112" ed:parentid="106" stroke-linecap="round" d="M-13.5,0C-2.7,0,5.4,0,13.5,0"/><path stroke="#696969" transform="matrix(1,0,0,1,396,75)" fill="none" id="115" stroke-linejoin="round" ed:tosuperid="114" ed:parentid="108" stroke-linecap="round" d="M-13.5,0C-2.7,0,5.4,0,13.5,0"/><path stroke="#696969" transform="matrix(1,0,0,1,396,105)" fill="none" id="117" stroke-linejoin="round" ed:tosuperid="116" ed:parentid="110" stroke-linecap="round" d="M-13.5,0C-2.7,0,5.4,0,13.5,0"/><path stroke="#696969" transform="matrix(1,0,0,1,285,162)" fill="none" id="119" stroke-linejoin="round" ed:tosuperid="118" ed:parentid="104" stroke-linecap="round" d="M-13.5,-5.9C-1.3,-5.9,2.2,5.9,13.5,5.9"/><path stroke="#696969" transform="matrix(1,0,0,1,410,168)" fill="none" id="121" stroke-linejoin="round" ed:tosuperid="120" ed:parentid="118" stroke-linecap="round" d="M-13.5,0C-2.7,0,5.4,0,13.5,0"/><path stroke="#696969" transform="matrix(1,0,0,1,116,220)" fill="none" id="123" stroke-linejoin="round" ed:tosuperid="122" ed:parentid="101" stroke-linecap="round" d="M-10.9,-11.3C7.9,5.8,22.3,29.1,52.1,29.1"/><path stroke="#696969" transform="matrix(1,0,0,1,253,240)" fill="none" id="125" stroke-linejoin="round" ed:tosuperid="124" ed:parentid="122" stroke-linecap="round" d="M-13.5,9.1C-0.6,9.1,0.4,-9.1,13.5,-9.1"/><path stroke="#696969" transform="matrix(1,0,0,1,253,255)" fill="none" id="127" stroke-linejoin="round" ed:tosuperid="126" ed:parentid="122" stroke-linecap="round" d="M-13.5,-5.9C-1.3,-5.9,2.2,5.9,13.5,5.9"/><path stroke="#696969" transform="matrix(1,0,0,1,253,270)" fill="none" id="129" stroke-linejoin="round" ed:tosuperid="128" ed:parentid="122" stroke-linecap="round" d="M-13.5,-20.9C1.9,-20.9,-5.4,20.9,13.5,20.9"/><path stroke="#696969" transform="matrix(1,0,0,1,338,291)" fill="none" id="131" stroke-linejoin="round" ed:tosuperid="130" ed:parentid="128" stroke-linecap="round" d="M-13.5,0C-2.7,0,5.4,0,13.5,0"/><path stroke="#696969" transform="matrix(1,0,0,1,116,266)" fill="none" id="133" stroke-linejoin="round" ed:tosuperid="132" ed:parentid="101" stroke-linecap="round" d="M-19,-47.7C-0.1,-3.9,0.9,75.7,52.1,75.7"/><path stroke="#696969" transform="matrix(1,0,0,1,349,348)" fill="none" id="135" stroke-linejoin="round" ed:tosuperid="134" ed:parentid="132" stroke-linecap="round" d="M-13.5,-5.9C-1.3,-5.9,2.2,5.9,13.5,5.9"/><g ed:height="56" transform="matrix(1,0,0,1,23,163)" id="101" ed:layout="rightmap" ed:width="82.33333333333334" ed:topictype="mainidea"><path stroke="#435fbc" fill="#435fbc" stroke-linejoin="round" stroke-width="3" d="M4,0L78.3,0C81,0,82.3,1.3,82.3,4L82.3,52C82.3,54.7,81,56,78.3,56L4,56C1.3,56,0,54.7,0,52L0,4C0,1.3,1.3,0,4,0z"/><text class="st1"><tspan y="34.1" style="white-space:pre" x="21">数组</tspan></text></g><g ed:height="36.66666666666667" transform="matrix(1,0,0,1,168,44)" id="102" ed:parentid="101" ed:width="103"><path stroke="#ebecf3" fill="#ebecf3" stroke-linejoin="round" d="M4,0L99,0C101.7,0,103,1.3,103,4L103,32.7C103,35.4,101.7,36.7,99,36.7L4,36.7C1.3,36.7,0,35.4,0,32.7L0,4C0,1.3,1.3,0,4,0z"/><text class="st2"><tspan y="23.5" style="white-space:pre" x="18">一维数组</tspan></text></g><g ed:height="36.66666666666667" transform="matrix(1,0,0,1,168,138)" id="104" ed:parentid="101" ed:width="103"><path stroke="#ebecf3" fill="#ebecf3" stroke-linejoin="round" d="M4,0L99,0C101.7,0,103,1.3,103,4L103,32.7C103,35.4,101.7,36.7,99,36.7L4,36.7C1.3,36.7,0,35.4,0,32.7L0,4C0,1.3,1.3,0,4,0z"/><text class="st2"><tspan y="23.5" style="white-space:pre" x="18">二维数组</tspan></text></g><g ed:height="23.5" transform="matrix(1,0,0,1,298,21)" id="106" ed:parentid="102" ed:width="44.66666666666667"><path stroke="#696969" fill="none" stroke-linejoin="round" d="M0,23.5L44.7,23.5"/><text class="st3"><tspan y="15.4" style="white-space:pre" x="8">声明</tspan></text></g><g ed:height="23.5" transform="matrix(1,0,0,1,298,51)" id="108" ed:parentid="102" ed:width="84.66666666666667"><path stroke="#696969" fill="none" stroke-linejoin="round" d="M0,23.5L84.7,23.5"/><text class="st3"><tspan y="15.4" style="white-space:pre" x="8">静态初始化</tspan></text></g><g ed:height="23.5" transform="matrix(1,0,0,1,298,81)" id="110" ed:parentid="102" ed:width="84.66666666666667"><path stroke="#696969" fill="none" stroke-linejoin="round" d="M0,23.5L84.7,23.5"/><text class="st3"><tspan y="15.4" style="white-space:pre" x="8">动态初始化</tspan></text></g><g ed:height="23.5" transform="matrix(1,0,0,1,370,21)" id="112" ed:parentid="106" ed:width="151.3333333333333"><path stroke="#696969" fill="none" stroke-linejoin="round" d="M0,23.5L151.3,23.5"/><text class="st3"><tspan y="15.4" style="white-space:pre" x="8">元素数据类型[] 数组名</tspan></text></g><g ed:height="23.5" transform="matrix(1,0,0,1,410,51)" id="114" ed:parentid="108" ed:width="188.6666666666667"><path stroke="#696969" fill="none" stroke-linejoin="round" d="M0,23.5L188.7,23.5"/><text class="st3"><tspan y="15.4" style="white-space:pre" x="8">int numberArray = {1, 2, 3}</tspan></text></g><g ed:height="23.5" transform="matrix(1,0,0,1,410,81)" id="116" ed:parentid="110" ed:width="207.3333333333333"><path stroke="#696969" fill="none" stroke-linejoin="round" d="M0,23.5L207.3,23.5"/><text class="st3"><tspan y="15.4" style="white-space:pre" x="8">init numberArray = new int[4]</tspan></text></g><g ed:height="23.5" transform="matrix(1,0,0,1,298,144)" id="118" ed:parentid="104" ed:width="98"><path stroke="#696969" fill="none" stroke-linejoin="round" d="M0,23.5L98,23.5"/><text class="st3"><tspan y="15.4" style="white-space:pre" x="8">参考一维数组</tspan></text></g><g ed:height="23.5" transform="matrix(1,0,0,1,423,144)" id="120" ed:parentid="118" ed:width="164.6666666666667"><path stroke="#696969" fill="none" stroke-linejoin="round" d="M0,23.5L164.7,23.5"/><text class="st3"><tspan y="15.4" style="white-space:pre" x="8">元素数据类型[] [] 数组名</tspan></text></g><g ed:height="36.66666666666667" transform="matrix(1,0,0,1,168,231)" id="122" ed:parentid="101" ed:width="71"><path stroke="#ebecf3" fill="#ebecf3" stroke-linejoin="round" d="M4,0L67,0C69.7,0,71,1.3,71,4L71,32.7C71,35.4,69.7,36.7,67,36.7L4,36.7C1.3,36.7,0,35.4,0,32.7L0,4C0,1.3,1.3,0,4,0z"/><text class="st2"><tspan y="23.5" style="white-space:pre" x="18">特性</tspan></text></g><g ed:height="23.5" transform="matrix(1,0,0,1,266,207)" id="124" ed:parentid="122" ed:width="111.3333333333333"><path stroke="#696969" fill="none" stroke-linejoin="round" d="M0,23.5L111.3,23.5"/><text class="st3"><tspan y="15.4" style="white-space:pre" x="8">数据类型一致性</tspan></text></g><g ed:height="23.5" transform="matrix(1,0,0,1,266,237)" id="126" ed:parentid="122" ed:width="102"><path stroke="#696969" fill="none" stroke-linejoin="round" d="M0,23.5L102,23.5"/><text class="st3"><tspan y="15.4" style="white-space:pre" x="8">有序 下标访问</tspan></text></g><g ed:height="23.5" transform="matrix(1,0,0,1,266,267)" id="128" ed:parentid="122" ed:width="58"><path stroke="#696969" fill="none" stroke-linejoin="round" d="M0,23.5L58,23.5"/><text class="st3"><tspan y="15.4" style="white-space:pre" x="8">不可变</tspan></text></g><g ed:height="23.5" transform="matrix(1,0,0,1,351,267)" id="130" ed:parentid="128" ed:width="124.6666666666667"><path stroke="#696969" fill="none" stroke-linejoin="round" d="M0,23.5L124.7,23.5"/><text class="st3"><tspan y="15.4" style="white-space:pre" x="8">初始化后长度不变</tspan></text></g><g ed:height="36.66666666666667" transform="matrix(1,0,0,1,168,324)" id="132" ed:parentid="101" ed:width="167"><path stroke="#ebecf3" fill="#ebecf3" stroke-linejoin="round" d="M4,0L163,0C165.7,0,167,1.3,167,4L167,32.7C167,35.4,165.7,36.7,163,36.7L4,36.7C1.3,36.7,0,35.4,0,32.7L0,4C0,1.3,1.3,0,4,0z"/><text class="st2"><tspan y="23.5" style="white-space:pre" x="18">可能会出发的异常</tspan></text></g><g ed:height="23.5" transform="matrix(1,0,0,1,362,330)" id="134" ed:parentid="132" ed:width="317.3333333333333"><path stroke="#696969" fill="none" stroke-linejoin="round" d="M0,23.5L317.3,23.5"/><text class="st3"><tspan y="15.4" style="white-space:pre" x="8">ArrayIndexOutOfBoundException  下标越界异常</tspan></text></g><symbol id="plus"><path fill="url(#lg1)" d="M11,6C11,8.8,8.8,11,6,11C3.2,11,1,8.8,1,6C1,3.2,3.2,1,6,1C8.8,1,11,3.2,11,6z"/><path stroke="#46a000" fill="none" stroke-width="0.7" d="M11,6C11,8.8,8.8,11,6,11C3.2,11,1,8.8,1,6C1,3.2,3.2,1,6,1C8.8,1,11,3.2,11,6zM3,6L9,6M6,3L6,9"/></symbol><symbol id="minus"><path fill="url(#lg1)" d="M11,6C11,8.8,8.8,11,6,11C3.2,11,1,8.8,1,6C1,3.2,3.2,1,6,1C8.8,1,11,3.2,11,6z"/><path stroke="#46a000" fill="none" stroke-width="0.7" d="M11,6C11,8.8,8.8,11,6,11C3.2,11,1,8.8,1,6C1,3.2,3.2,1,6,1C8.8,1,11,3.2,11,6zM3,6L9,6"/></symbol><g transform="translate(106,185)" ed:togtopicid="101"><use xlink:href="#minus"/></g><g transform="translate(272,57)" ed:togtopicid="102"><use xlink:href="#minus"/></g><g transform="translate(272,150)" ed:togtopicid="104"><use xlink:href="#minus"/></g><g transform="translate(344,27)" ed:togtopicid="106"><use xlink:href="#minus"/></g><g transform="translate(384,57)" ed:togtopicid="108"><use xlink:href="#minus"/></g><g transform="translate(384,87)" ed:togtopicid="110"><use xlink:href="#minus"/></g><g transform="translate(397,150)" ed:togtopicid="118"><use xlink:href="#minus"/></g><g transform="translate(240,243)" ed:togtopicid="122"><use xlink:href="#minus"/></g><g transform="translate(325,273)" ed:togtopicid="128"><use xlink:href="#minus"/></g><g transform="translate(336,336)" ed:togtopicid="132"><use xlink:href="#minus"/></g></svg>