<svg xmlns:ev="http://www.w3.org/2001/xml-events" id="page100" width="980" viewBox="0 0 980 550" height="550" xmlns:xlink="http://www.w3.org/1999/xlink" ed:name="Page-1" ed:vSpacing="30" xmlns="http://www.w3.org/2000/svg" xmlns:ed="https://www.edrawsoft.cn/xml/2017/SVGExtensions/" ed:hSpacing="30"><style type="text/css"><![CDATA[
g[ed\:togtopicid],g[ed\:hyperlink],g[ed\:comment],g[ed\:note] {cursor:pointer;}
g[id] {-moz-user-select: none;-ms-user-select: none;user-select: none;}
svg text::selection,svg tspan::selection{background-color: #4285f4;color: #ffffff;fill: #ffffff;}
.st2 {fill:#303030;font-family:微软雅黑;font-size:12pt}
.st3 {fill:#454545;font-family:微软雅黑;font-size:10pt}
.st1 {fill:#ffffff;font-family:微软雅黑;font-size:14pt}
]]></style><defs><linearGradient x1="0%" id="lg1" y2="100%" y1="0%" x2="0%"><stop offset="0" stop-color="#ffffff"/><stop offset="0.25" stop-color="#f0f5f0"/><stop offset="0.75" stop-color="#e1ebe1"/><stop offset="1" stop-color="#c8d7c8"/></linearGradient></defs><rect x="0" y="0" width="980" height="550" fill="#ffffff"/><path stroke="#696969" transform="matrix(1,0,0,1,144,188)" ed:tosuperid="102" id="103" stroke-linecap="round" d="M-24.4,58.5C0.1,9.5,0.3,-86.5,61.4,-86.5" ed:parentid="101" fill="none" stroke-linejoin="round"/><path stroke="#696969" transform="matrix(1,0,0,1,144,254)" ed:tosuperid="104" id="105" stroke-linecap="round" d="M-1.6,2.1C17.8,-8.7,35.7,-20.4,61.4,-20.4" ed:parentid="101" fill="none" stroke-linejoin="round"/><path stroke="#696969" transform="matrix(1,0,0,1,144,289)" ed:tosuperid="106" id="107" stroke-linecap="round" d="M-1.6,-1.7C18.7,6,37.2,14.4,61.4,14.4" ed:parentid="101" fill="none" stroke-linejoin="round"/><path stroke="#696969" transform="matrix(1,0,0,1,144,358)" ed:tosuperid="108" id="109" stroke-linecap="round" d="M-23.9,-55.5C0.3,-7.9,1.8,83.5,61.4,83.5" ed:parentid="101" fill="none" stroke-linejoin="round"/><path stroke="#696969" transform="matrix(1,0,0,1,274,73)" ed:tosuperid="110" id="111" stroke-linecap="round" d="M-13.5,28.6C3.3,28.6,-8.6,-28.6,13.5,-28.6" ed:parentid="102" fill="none" stroke-linejoin="round"/><path stroke="#696969" transform="matrix(1,0,0,1,274,88)" ed:tosuperid="112" id="113" stroke-linecap="round" d="M-13.5,13.6C0.4,13.6,-1.9,-13.6,13.5,-13.6" ed:parentid="102" fill="none" stroke-linejoin="round"/><path stroke="#696969" transform="matrix(1,0,0,1,274,123)" ed:tosuperid="114" id="115" stroke-linecap="round" d="M-13.5,-20.9C1.9,-20.9,-5.4,20.9,13.5,20.9" ed:parentid="102" fill="none" stroke-linejoin="round"/><path stroke="#696969" transform="matrix(1,0,0,1,372,75)" ed:tosuperid="116" id="117" stroke-linecap="round" d="M-13.5,0C-2.7,0,5.4,0,13.5,0" ed:parentid="112" fill="none" stroke-linejoin="round"/><path stroke="#696969" transform="matrix(1,0,0,1,372,133)" ed:tosuperid="118" id="119" stroke-linecap="round" d="M-13.5,10.5C-0.3,10.5,-0.3,-10.5,13.5,-10.5" ed:parentid="114" fill="none" stroke-linejoin="round"/><path stroke="#696969" transform="matrix(1,0,0,1,372,148)" ed:tosuperid="122" id="123" stroke-linecap="round" d="M-13.5,-4.5C-1.6,-4.5,2.9,4.5,13.5,4.5" ed:parentid="114" fill="none" stroke-linejoin="round"/><path stroke="#696969" transform="matrix(1,0,0,1,372,163)" ed:tosuperid="124" id="125" stroke-linecap="round" d="M-13.5,-19.5C1.7,-19.5,-4.8,19.5,13.5,19.5" ed:parentid="114" fill="none" stroke-linejoin="round"/><path stroke="#696969" transform="matrix(1,0,0,1,274,240)" ed:tosuperid="126" id="127" stroke-linecap="round" d="M-13.5,-5.9C-1.3,-5.9,2.2,5.9,13.5,5.9" ed:parentid="104" fill="none" stroke-linejoin="round"/><path stroke="#696969" transform="matrix(1,0,0,1,322,309)" ed:tosuperid="128" id="129" stroke-linecap="round" d="M-13.5,-5.9C-1.3,-5.9,2.2,5.9,13.5,5.9" ed:parentid="106" fill="none" stroke-linejoin="round"/><path stroke="#696969" transform="matrix(1,0,0,1,359,410)" ed:tosuperid="130" id="131" stroke-linecap="round" d="M-13.5,31.6C3.7,31.6,-9.6,-31.6,13.5,-31.6" ed:parentid="108" fill="none" stroke-linejoin="round"/><path stroke="#696969" transform="matrix(1,0,0,1,457,378)" ed:tosuperid="132" id="133" stroke-linecap="round" d="M-13.5,0C-2.7,0,5.4,0,13.5,0" ed:parentid="130" fill="none" stroke-linejoin="round"/><path stroke="#696969" transform="matrix(1,0,0,1,601,378)" ed:tosuperid="134" id="135" stroke-linecap="round" d="M-13.5,0C-2.7,0,5.4,0,13.5,0" ed:parentid="132" fill="none" stroke-linejoin="round"/><path stroke="#696969" transform="matrix(1,0,0,1,359,440)" ed:tosuperid="136" id="137" stroke-linecap="round" d="M-13.5,1.6C-2.3,1.6,4.5,-1.6,13.5,-1.6" ed:parentid="108" fill="none" stroke-linejoin="round"/><path stroke="#696969" transform="matrix(1,0,0,1,457,423)" ed:tosuperid="138" id="139" stroke-linecap="round" d="M-13.5,15C0.7,15,-2.6,-15,13.5,-15" ed:parentid="136" fill="none" stroke-linejoin="round"/><path stroke="#696969" transform="matrix(1,0,0,1,359,470)" ed:tosuperid="140" id="141" stroke-linecap="round" d="M-13.5,-28.4C3.3,-28.4,-8.5,28.4,13.5,28.4" ed:parentid="108" fill="none" stroke-linejoin="round"/><path stroke="#696969" transform="matrix(1,0,0,1,457,498)" ed:tosuperid="142" id="143" stroke-linecap="round" d="M-13.5,0C-2.7,0,5.4,0,13.5,0" ed:parentid="140" fill="none" stroke-linejoin="round"/><path stroke="#696969" transform="matrix(1,0,0,1,359,485)" ed:tosuperid="144" id="145" stroke-linecap="round" d="M-13.5,-43.4C5,-43.4,-12.6,43.4,13.5,43.4" ed:parentid="108" fill="none" stroke-linejoin="round"/><path stroke="#696969" transform="matrix(1,0,0,1,457,528)" ed:tosuperid="146" id="147" stroke-linecap="round" d="M-13.5,0C-2.7,0,5.4,0,13.5,0" ed:parentid="144" fill="none" stroke-linejoin="round"/><path stroke="#696969" transform="matrix(1,0,0,1,615,528)" ed:tosuperid="148" id="149" stroke-linecap="round" d="M-13.5,0C-2.7,0,5.4,0,13.5,0" ed:parentid="146" fill="none" stroke-linejoin="round"/><path stroke="#696969" transform="matrix(1,0,0,1,457,438)" ed:tosuperid="150" id="151" stroke-linecap="round" d="M-13.5,0C-2.7,0,5.4,0,13.5,0" ed:parentid="136" fill="none" stroke-linejoin="round"/><path stroke="#696969" transform="matrix(1,0,0,1,457,453)" ed:tosuperid="152" id="153" stroke-linecap="round" d="M-13.5,-15C0.7,-15,-2.6,15,13.5,15" ed:parentid="136" fill="none" stroke-linejoin="round"/><path stroke="#696969" transform="matrix(1,0,0,1,649,468)" ed:tosuperid="154" id="155" stroke-linecap="round" d="M-13.5,0C-2.7,0,5.4,0,13.5,0" ed:parentid="152" fill="none" stroke-linejoin="round"/><g transform="matrix(1,0,0,1,23,247)" id="101" ed:width="119.6666666666667" ed:height="56" ed:topictype="mainidea" ed:layout="rightmap"><path stroke="#435fbc" d="M4,0L115.7,0C118.4,0,119.7,1.3,119.7,4L119.7,52C119.7,54.7,118.4,56,115.7,56L4,56C1.3,56,0,54.7,0,52L0,4C0,1.3,1.3,0,4,0z" stroke-width="3" fill="#435fbc" stroke-linejoin="round"/><text class="st1"><tspan x="21" y="34.1" style="white-space:pre">面向对象</tspan></text></g><g transform="matrix(1,0,0,1,206,83)" id="102" ed:width="55" ed:parentid="101" ed:height="36.66666666666667"><path stroke="#ebecf3" d="M4,0L51,0C53.7,0,55,1.3,55,4L55,32.7C55,35.4,53.7,36.7,51,36.7L4,36.7C1.3,36.7,0,35.4,0,32.7L0,4C0,1.3,1.3,0,4,0z" fill="#ebecf3" stroke-linejoin="round"/><text class="st2"><tspan x="18" y="23.5" style="white-space:pre">类</tspan></text></g><g transform="matrix(1,0,0,1,206,216)" id="104" ed:width="55" ed:parentid="101" ed:height="36.66666666666667"><path stroke="#ebecf3" d="M4,0L51,0C53.7,0,55,1.3,55,4L55,32.7C55,35.4,53.7,36.7,51,36.7L4,36.7C1.3,36.7,0,35.4,0,32.7L0,4C0,1.3,1.3,0,4,0z" fill="#ebecf3" stroke-linejoin="round"/><text class="st2"><tspan x="18" y="23.5" style="white-space:pre">包</tspan></text></g><g transform="matrix(1,0,0,1,206,285)" id="106" ed:width="103" ed:parentid="101" ed:height="36.66666666666667"><path stroke="#ebecf3" d="M4,0L99,0C101.7,0,103,1.3,103,4L103,32.7C103,35.4,101.7,36.7,99,36.7L4,36.7C1.3,36.7,0,35.4,0,32.7L0,4C0,1.3,1.3,0,4,0z" fill="#ebecf3" stroke-linejoin="round"/><text class="st2"><tspan x="18" y="23.5" style="white-space:pre">方法重载</tspan></text></g><g transform="matrix(1,0,0,1,206,423)" id="108" ed:width="139.6666666666667" ed:parentid="101" ed:height="36.66666666666667"><path stroke="#ebecf3" d="M4,0L135.7,0C138.4,0,139.7,1.3,139.7,4L139.7,32.7C139.7,35.4,138.4,36.7,135.7,36.7L4,36.7C1.3,36.7,0,35.4,0,32.7L0,4C0,1.3,1.3,0,4,0z" fill="#ebecf3" stroke-linejoin="round"/><text class="st2"><tspan x="18" y="23.5" style="white-space:pre">静态变量 方法</tspan></text></g><g transform="matrix(1,0,0,1,288,21)" id="110" ed:width="671.3333333333334" ed:parentid="102" ed:height="23.5"><path stroke="#696969" d="M0,23.5L671.3,23.5" fill="none" stroke-linejoin="round"/><text class="st3"><tspan x="8" y="15.4" style="white-space:pre">[public] [abstract | final ] class className [extends superclass] [implements xximple, xximple2] { // 类体}</tspan></text></g><g transform="matrix(1,0,0,1,288,51)" id="112" ed:width="71.33333333333334" ed:parentid="102" ed:height="23.5"><path stroke="#696969" d="M0,23.5L71.3,23.5" fill="none" stroke-linejoin="round"/><text class="st3"><tspan x="8" y="15.4" style="white-space:pre">成员变量</tspan></text></g><g transform="matrix(1,0,0,1,288,120)" id="114" ed:width="71.33333333333334" ed:parentid="102" ed:height="23.5"><path stroke="#696969" d="M0,23.5L71.3,23.5" fill="none" stroke-linejoin="round"/><text class="st3"><tspan x="8" y="15.4" style="white-space:pre">成员方法</tspan></text></g><g transform="matrix(1,0,0,1,386,51)" id="116" ed:width="416" ed:parentid="112" ed:height="23.5"><path stroke="#696969" d="M0,23.5L416,23.5" fill="none" stroke-linejoin="round"/><text class="st3"><tspan x="8" y="15.4" style="white-space:pre">[ public | protected |private ] [static ] [final] type variableName;</tspan></text></g><g transform="matrix(1,0,0,1,386,81)" id="118" ed:width="514" ed:parentid="114" ed:height="41.5"><path stroke="#696969" d="M0,41.5L514,41.5" fill="none" stroke-linejoin="round"/><text class="st3"><tspan x="8" y="15.4" style="white-space:pre">[ public |protected |private ] [static] [final | abstract] [native] [synchronized] </tspan><tspan x="8" y="33.4" style="white-space:pre">type methodName ([paramList]) [throws exceptionList] {//方法体}</tspan></text></g><g transform="matrix(1,0,0,1,386,129)" id="122" ed:width="188" ed:parentid="114" ed:height="23.5"><path stroke="#696969" d="M0,23.5L188,23.5" fill="none" stroke-linejoin="round"/><text class="st3"><tspan x="8" y="15.4" style="white-space:pre">native 本地方法  不能跨平台</tspan></text></g><g transform="matrix(1,0,0,1,386,159)" id="124" ed:width="287.3333333333333" ed:parentid="114" ed:height="23.5"><path stroke="#696969" d="M0,23.5L287.3,23.5" fill="none" stroke-linejoin="round"/><text class="st3"><tspan x="8" y="15.4" style="white-space:pre">synchronized： 同步 串行执行 保证线程安全</tspan></text></g><g transform="matrix(1,0,0,1,288,222)" id="126" ed:width="111.3333333333333" ed:parentid="104" ed:height="23.5"><path stroke="#696969" d="M0,23.5L111.3,23.5" fill="none" stroke-linejoin="round"/><text class="st3"><tspan x="8" y="15.4" style="white-space:pre">本质为命令空间</tspan></text></g><g transform="matrix(1,0,0,1,336,292)" id="128" ed:width="216.6666666666667" ed:parentid="106" ed:height="23.5"><path stroke="#696969" d="M0,23.5L216.7,23.5" fill="none" stroke-linejoin="round"/><text class="st3"><tspan x="8" y="15.4" style="white-space:pre">方法名相同  参数个数 与类型不同</tspan></text></g><g transform="matrix(1,0,0,1,372,355)" id="130" ed:width="71.33333333333334" ed:parentid="108" ed:height="23.5"><path stroke="#696969" d="M0,23.5L71.3,23.5" fill="none" stroke-linejoin="round"/><text class="st3"><tspan x="8" y="15.4" style="white-space:pre">静态方法</tspan></text></g><g transform="matrix(1,0,0,1,471,355)" id="132" ed:width="117.3333333333333" ed:parentid="130" ed:height="23.5"><path stroke="#696969" d="M0,23.5L117.3,23.5" fill="none" stroke-linejoin="round"/><text class="st3"><tspan x="8" y="15.4" style="white-space:pre">static修饰的方法</tspan></text></g><g transform="matrix(1,0,0,1,615,355)" id="134" ed:width="204.6666666666667" ed:parentid="132" ed:height="23.5"><path stroke="#696969" d="M0,23.5L204.7,23.5" fill="none" stroke-linejoin="round"/><text class="st3"><tspan x="8" y="15.4" style="white-space:pre">可访问静态变量和其它静态方法</tspan></text></g><g transform="matrix(1,0,0,1,372,415)" id="136" ed:width="71.33333333333334" ed:parentid="108" ed:height="23.5"><path stroke="#696969" d="M0,23.5L71.3,23.5" fill="none" stroke-linejoin="round"/><text class="st3"><tspan x="8" y="15.4" style="white-space:pre">静态变量</tspan></text></g><g transform="matrix(1,0,0,1,471,385)" id="138" ed:width="148" ed:parentid="136" ed:height="23.5"><path stroke="#696969" d="M0,23.5L148,23.5" fill="none" stroke-linejoin="round"/><text class="st3"><tspan x="8" y="15.4" style="white-space:pre">static 修饰的成员变量</tspan></text></g><g transform="matrix(1,0,0,1,372,475)" id="140" ed:width="71.33333333333334" ed:parentid="108" ed:height="23.5"><path stroke="#696969" d="M0,23.5L71.3,23.5" fill="none" stroke-linejoin="round"/><text class="st3"><tspan x="8" y="15.4" style="white-space:pre">实例变量</tspan></text></g><g transform="matrix(1,0,0,1,471,475)" id="142" ed:width="157.3333333333333" ed:parentid="140" ed:height="23.5"><path stroke="#696969" d="M0,23.5L157.3,23.5" fill="none" stroke-linejoin="round"/><text class="st3"><tspan x="8" y="15.4" style="white-space:pre">非static修饰的成员变量</tspan></text></g><g transform="matrix(1,0,0,1,372,505)" id="144" ed:width="71.33333333333334" ed:parentid="108" ed:height="23.5"><path stroke="#696969" d="M0,23.5L71.3,23.5" fill="none" stroke-linejoin="round"/><text class="st3"><tspan x="8" y="15.4" style="white-space:pre">实例方法</tspan></text></g><g transform="matrix(1,0,0,1,471,505)" id="146" ed:width="130.6666666666667" ed:parentid="144" ed:height="23.5"><path stroke="#696969" d="M0,23.5L130.7,23.5" fill="none" stroke-linejoin="round"/><text class="st3"><tspan x="8" y="15.4" style="white-space:pre">非static修饰的方法</tspan></text></g><g transform="matrix(1,0,0,1,628,505)" id="148" ed:width="318" ed:parentid="146" ed:height="23.5"><path stroke="#696969" d="M0,23.5L318,23.5" fill="none" stroke-linejoin="round"/><text class="st3"><tspan x="8" y="15.4" style="white-space:pre">可访问 其它实例方法 静态变量 静态方法  实例变量</tspan></text></g><g transform="matrix(1,0,0,1,471,415)" id="150" ed:width="142" ed:parentid="136" ed:height="23.5"><path stroke="#696969" d="M0,23.5L142,23.5" fill="none" stroke-linejoin="round"/><text class="st3"><tspan x="8" y="15.4" style="white-space:pre">在声明时 同时初始化</tspan></text></g><g transform="matrix(1,0,0,1,471,445)" id="152" ed:width="164.6666666666667" ed:parentid="136" ed:height="23.5"><path stroke="#696969" d="M0,23.5L164.7,23.5" fill="none" stroke-linejoin="round"/><text class="st3"><tspan x="8" y="15.4" style="white-space:pre">可在静态代码块中初始化</tspan></text></g><g transform="matrix(1,0,0,1,662,445)" id="154" ed:width="231.3333333333333" ed:parentid="152" ed:height="23.5"><path stroke="#696969" d="M0,23.5L231.3,23.5" fill="none" stroke-linejoin="round"/><text class="st3"><tspan x="8" y="15.4" style="white-space:pre">类第一次加载时执行，并只执行一次</tspan></text></g><symbol id="plus"><path d="M11,6C11,8.8,8.8,11,6,11C3.2,11,1,8.8,1,6C1,3.2,3.2,1,6,1C8.8,1,11,3.2,11,6z" fill="url(#lg1)"/><path stroke="#46a000" d="M11,6C11,8.8,8.8,11,6,11C3.2,11,1,8.8,1,6C1,3.2,3.2,1,6,1C8.8,1,11,3.2,11,6zM3,6L9,6M6,3L6,9" stroke-width="0.7" fill="none"/></symbol><symbol id="minus"><path d="M11,6C11,8.8,8.8,11,6,11C3.2,11,1,8.8,1,6C1,3.2,3.2,1,6,1C8.8,1,11,3.2,11,6z" fill="url(#lg1)"/><path stroke="#46a000" d="M11,6C11,8.8,8.8,11,6,11C3.2,11,1,8.8,1,6C1,3.2,3.2,1,6,1C8.8,1,11,3.2,11,6zM3,6L9,6" stroke-width="0.7" fill="none"/></symbol><g transform="translate(144,269)" ed:togtopicid="101"><use xlink:href="#minus"/></g><g transform="translate(262,96)" ed:togtopicid="102"><use xlink:href="#minus"/></g><g transform="translate(262,228)" ed:togtopicid="104"><use xlink:href="#minus"/></g><g transform="translate(310,298)" ed:togtopicid="106"><use xlink:href="#minus"/></g><g transform="translate(346,436)" ed:togtopicid="108"><use xlink:href="#minus"/></g><g transform="translate(360,57)" ed:togtopicid="112"><use xlink:href="#minus"/></g><g transform="translate(360,126)" ed:togtopicid="114"><use xlink:href="#minus"/></g><g transform="translate(445,361)" ed:togtopicid="130"><use xlink:href="#minus"/></g><g transform="translate(589,361)" ed:togtopicid="132"><use xlink:href="#minus"/></g><g transform="translate(445,421)" ed:togtopicid="136"><use xlink:href="#minus"/></g><g transform="translate(445,481)" ed:togtopicid="140"><use xlink:href="#minus"/></g><g transform="translate(445,511)" ed:togtopicid="144"><use xlink:href="#minus"/></g><g transform="translate(602,511)" ed:togtopicid="146"><use xlink:href="#minus"/></g><g transform="translate(636,451)" ed:togtopicid="152"><use xlink:href="#minus"/></g></svg>