<svg ed:name="Page-1" ed:vSpacing="30" id="page100" height="187" xmlns:ed="https://www.edrawsoft.cn/xml/2017/SVGExtensions/" xmlns="http://www.w3.org/2000/svg" xmlns:ev="http://www.w3.org/2001/xml-events" width="818" xmlns:xlink="http://www.w3.org/1999/xlink" ed:hSpacing="30" viewBox="0 0 818 187"><style type="text/css"><![CDATA[
g[ed\:togtopicid],g[ed\:hyperlink],g[ed\:comment],g[ed\:note] {cursor:pointer;}
g[id] {-moz-user-select: none;-ms-user-select: none;user-select: none;}
svg text::selection,svg tspan::selection{background-color: #4285f4;color: #ffffff;fill: #ffffff;}
.st2 {fill:#303030;font-family:微软雅黑;font-size:12pt}
.st4 {fill:#303030;font-size:12pt}
.st3 {fill:#454545;font-family:微软雅黑;font-size:10pt}
.st1 {fill:#ffffff;font-family:微软雅黑;font-size:14pt}
]]></style><defs><linearGradient id="lg1" x2="0%" y2="100%" y1="0%" x1="0%"><stop offset="0" stop-color="#ffffff"/><stop offset="0.25" stop-color="#f0f5f0"/><stop offset="0.75" stop-color="#e1ebe1"/><stop offset="1" stop-color="#c8d7c8"/></linearGradient></defs><rect y="0" fill="#ffffff" height="187" width="818" x="0"/><path stroke="#696969" transform="matrix(1,0,0,1,130,71)" fill="none" id="103" stroke-linejoin="round" ed:tosuperid="102" ed:parentid="101" stroke-linecap="round" d="M-6.2,5.4C13,-7.5,29.7,-23,56.8,-23"/><path stroke="#696969" transform="matrix(1,0,0,1,130,115)" fill="none" id="105" stroke-linejoin="round" ed:tosuperid="104" ed:parentid="101" stroke-linecap="round" d="M-6.3,-5.2C13.2,7,30.1,21.6,56.8,21.6"/><path stroke="#696969" transform="matrix(1,0,0,1,285,46)" fill="none" id="107" stroke-linejoin="round" ed:tosuperid="106" ed:parentid="102" stroke-linecap="round" d="M-13.5,1.6C-2.3,1.6,4.5,-1.6,13.5,-1.6"/><path stroke="#696969" transform="matrix(1,0,0,1,285,61)" fill="none" id="109" stroke-linejoin="round" ed:tosuperid="108" ed:parentid="102" stroke-linecap="round" d="M-13.5,-13.4C0.4,-13.4,-1.8,13.4,13.5,13.4"/><path stroke="#696969" transform="matrix(1,0,0,1,320,135)" fill="none" id="113" stroke-linejoin="round" ed:tosuperid="112" ed:parentid="104" stroke-linecap="round" d="M-13.5,1.6C-2.3,1.6,4.5,-1.6,13.5,-1.6"/><path stroke="#696969" transform="matrix(1,0,0,1,320,152)" fill="none" id="115" stroke-linejoin="round" ed:tosuperid="114" ed:parentid="104" stroke-linecap="round" d="M-13.5,-14.7C0.7,-14.7,-2.4,14.7,13.5,14.7"/><path stroke="#696969" transform="matrix(1,0,0,1,463,133)" fill="none" id="117" stroke-linejoin="round" ed:tosuperid="116" ed:parentid="112" stroke-linecap="round" d="M-13.5,0.7C-2.7,0.7,5.4,-0.7,13.5,-0.7"/><path stroke="#696969" transform="matrix(1,0,0,1,456,166)" fill="none" id="119" stroke-linejoin="round" ed:tosuperid="118" ed:parentid="114" stroke-linecap="round" d="M-13.5,0.7C-2.7,0.7,5.4,-0.7,13.5,-0.7"/><g ed:height="56" transform="matrix(1,0,0,1,23,66)" id="101" ed:layout="rightmap" ed:width="101" ed:topictype="mainidea"><path stroke="#435fbc" fill="#435fbc" stroke-linejoin="round" stroke-width="3" d="M4,0L97,0C99.7,0,101,1.3,101,4L101,52C101,54.7,99.7,56,97,56L4,56C1.3,56,0,54.7,0,52L0,4C0,1.3,1.3,0,4,0z"/><text class="st1"><tspan y="34.1" style="white-space:pre" x="21">字符串</tspan></text></g><g ed:height="36.66666666666667" transform="matrix(1,0,0,1,187,29)" id="102" ed:parentid="101" ed:width="84.33333333333334"><path stroke="#ebecf3" fill="#ebecf3" stroke-linejoin="round" d="M4,0L80.3,0C83,0,84.3,1.3,84.3,4L84.3,32.7C84.3,35.4,83,36.7,80.3,36.7L4,36.7C1.3,36.7,0,35.4,0,32.7L0,4C0,1.3,1.3,0,4,0z"/><text class="st2"><tspan y="23.5" style="white-space:pre" x="18">String</tspan></text></g><g ed:height="36.66666666666667" transform="matrix(1,0,0,1,187,119)" id="104" ed:parentid="101" ed:width="119"><path stroke="#ebecf3" fill="#ebecf3" stroke-linejoin="round" d="M4,0L115,0C117.7,0,119,1.3,119,4L119,32.7C119,35.4,117.7,36.7,115,36.7L4,36.7C1.3,36.7,0,35.4,0,32.7L0,4C0,1.3,1.3,0,4,0z"/><text class="st2"><tspan y="23.5" style="white-space:pre" x="18">字符串拼接</tspan></text></g><g ed:height="23.5" transform="matrix(1,0,0,1,298,21)" id="106" ed:parentid="102" ed:width="164.6666666666667"><path stroke="#696969" fill="none" stroke-linejoin="round" d="M0,23.5L164.7,23.5"/><text class="st3"><tspan y="15.4" style="white-space:pre" x="8">字符组成的一串字符序列</tspan></text></g><g ed:height="23.5" transform="matrix(1,0,0,1,298,51)" id="108" ed:parentid="102" ed:width="58"><path stroke="#696969" fill="none" stroke-linejoin="round" d="M0,23.5L58,23.5"/><text class="st3"><tspan y="15.4" style="white-space:pre" x="8">不可变</tspan></text></g><g ed:height="26.16666666666667" transform="matrix(1,0,0,1,333,107)" id="112" ed:parentid="104" ed:width="116.6666666666667"><path stroke="#696969" fill="none" stroke-linejoin="round" d="M0,26.2L116.7,26.2"/><text class="st3"><tspan y="18.1" class="st4" style="white-space:pre" x="8">StringBuilder</tspan></text></g><g ed:height="26.16666666666667" transform="matrix(1,0,0,1,333,140)" id="114" ed:parentid="104" ed:width="109.3333333333333"><path stroke="#696969" fill="none" stroke-linejoin="round" d="M0,26.2L109.3,26.2"/><text class="st3"><tspan y="18.1" class="st4" style="white-space:pre" x="8">StringBuffer</tspan></text></g><g ed:height="23.5" transform="matrix(1,0,0,1,477,109)" id="116" ed:parentid="112" ed:width="320"><path stroke="#696969" fill="none" stroke-linejoin="round" d="M0,23.5L320,23.5"/><text class="st3"><tspan y="15.4" style="white-space:pre" x="8">是StringBuffer的单线程版本  不是线程安全 效率高</tspan></text></g><g ed:height="23.5" transform="matrix(1,0,0,1,469,141)" id="118" ed:parentid="114" ed:width="159.3333333333333"><path stroke="#696969" fill="none" stroke-linejoin="round" d="M0,23.5L159.3,23.5"/><text class="st3"><tspan y="15.4" style="white-space:pre" x="8">线程安全  支持线程同步</tspan></text></g><symbol id="plus"><path fill="url(#lg1)" d="M11,6C11,8.8,8.8,11,6,11C3.2,11,1,8.8,1,6C1,3.2,3.2,1,6,1C8.8,1,11,3.2,11,6z"/><path stroke="#46a000" fill="none" stroke-width="0.7" d="M11,6C11,8.8,8.8,11,6,11C3.2,11,1,8.8,1,6C1,3.2,3.2,1,6,1C8.8,1,11,3.2,11,6zM3,6L9,6M6,3L6,9"/></symbol><symbol id="minus"><path fill="url(#lg1)" d="M11,6C11,8.8,8.8,11,6,11C3.2,11,1,8.8,1,6C1,3.2,3.2,1,6,1C8.8,1,11,3.2,11,6z"/><path stroke="#46a000" fill="none" stroke-width="0.7" d="M11,6C11,8.8,8.8,11,6,11C3.2,11,1,8.8,1,6C1,3.2,3.2,1,6,1C8.8,1,11,3.2,11,6zM3,6L9,6"/></symbol><g transform="translate(125,88)" ed:togtopicid="101"><use xlink:href="#minus"/></g><g transform="translate(272,42)" ed:togtopicid="102"><use xlink:href="#minus"/></g><g transform="translate(307,131)" ed:togtopicid="104"><use xlink:href="#minus"/></g><g transform="translate(451,115)" ed:togtopicid="112"><use xlink:href="#minus"/></g><g transform="translate(443,147)" ed:togtopicid="114"><use xlink:href="#minus"/></g></svg>