<svg ed:name="Page-1" ed:vSpacing="30" id="page100" height="995" xmlns:ed="https://www.edrawsoft.cn/xml/2017/SVGExtensions/" xmlns="http://www.w3.org/2000/svg" xmlns:ev="http://www.w3.org/2001/xml-events" width="897" xmlns:xlink="http://www.w3.org/1999/xlink" ed:hSpacing="30" viewBox="0 0 897 995"><style type="text/css"><![CDATA[
g[ed\:togtopicid],g[ed\:hyperlink],g[ed\:comment],g[ed\:note] {cursor:pointer;}
g[id] {-moz-user-select: none;-ms-user-select: none;user-select: none;}
svg text::selection,svg tspan::selection{background-color: #4285f4;color: #ffffff;fill: #ffffff;}
.st16 {fill:#000000;font-family:Courier New;font-size:12pt}
.st15 {fill:#000088;font-family:Courier New;font-size:12pt}
.st11 {fill:#0055aa;font-family:Menlo,Monaco,Consolas,Andale Mono,lucida console,Courier New,monospace}
.st9 {fill:#008000;font-family:Menlo,Monaco,Consolas,Andale Mono,lucida console,Courier New,monospace}
.st2 {fill:#303030;font-family:微软雅黑;font-size:12pt}
.st19 {fill:#333333;font-family:Helvetica Neue,Helvetica,PingFang SC,Hiragino Sans GB,Microsoft YaHei,Noto Sans CJK SC,WenQuanYi Micro Hei,Arial,sans-serif}
.st3 {fill:#454545;font-family:微软雅黑;font-size:10pt}
.st14 {fill:#454545;font-family:微软雅黑;font-size:14pt}
.st17 {fill:#666600;font-family:Courier New;font-size:12pt}
.st8 {fill:#669900;font-family:Source Code Pro,DejaVu Sans Mono,Ubuntu Mono,Anonymous Pro,Droid Sans Mono,Menlo,Monaco,Consolas,Inconsolata,Courier,monospace,PingFang SC,Microsoft YaHei,sans-serif}
.st10 {fill:#808000;font-family:Menlo,Monaco,Consolas,Andale Mono,lucida console,Courier New,monospace}
.st12 {fill:#808080;font-family:Menlo,Monaco,Consolas,Andale Mono,lucida console,Courier New,monospace}
.st18 {fill:#880000;font-family:Courier New;font-size:12pt}
.st7 {fill:#98c379;font-family:Source Code Pro,DejaVu Sans Mono,Ubuntu Mono,Anonymous Pro,Droid Sans Mono,Menlo,Monaco,Consolas,Inconsolata,Courier,monospace,PingFang SC,Microsoft YaHei,sans-serif}
.st6 {fill:#999999;font-family:Source Code Pro,DejaVu Sans Mono,Ubuntu Mono,Anonymous Pro,Droid Sans Mono,Menlo,Monaco,Consolas,Inconsolata,Courier,monospace,PingFang SC,Microsoft YaHei,sans-serif}
.st13 {fill:#aa5500;font-family:Menlo,Monaco,Consolas,Andale Mono,lucida console,Courier New,monospace}
.st4 {fill:#abb2bf;font-family:Source Code Pro,DejaVu Sans Mono,Ubuntu Mono,Anonymous Pro,Droid Sans Mono,Menlo,Monaco,Consolas,Inconsolata,Courier,monospace,PingFang SC,Microsoft YaHei,sans-serif}
.st5 {fill:#c678dd;font-family:Source Code Pro,DejaVu Sans Mono,Ubuntu Mono,Anonymous Pro,Droid Sans Mono,Menlo,Monaco,Consolas,Inconsolata,Courier,monospace,PingFang SC,Microsoft YaHei,sans-serif}
.st1 {fill:#ffffff;font-family:微软雅黑;font-size:14pt}
]]></style><defs><linearGradient id="lg1" x2="0%" y2="100%" y1="0%" x1="0%"><stop offset="0" stop-color="#ffffff"/><stop offset="0.25" stop-color="#f0f5f0"/><stop offset="0.75" stop-color="#e1ebe1"/><stop offset="1" stop-color="#c8d7c8"/></linearGradient></defs><rect y="0" fill="#ffffff" height="995" width="897" x="0"/><path stroke="#696969" transform="matrix(1,0,0,1,144,389)" fill="none" id="103" stroke-linejoin="round" ed:tosuperid="102" ed:parentid="101" stroke-linecap="round" d="M-26.9,80.3C-0.7,21.7,-9.6,-108.3,61.4,-108.3"/><path stroke="#696969" transform="matrix(1,0,0,1,144,602)" fill="none" id="105" stroke-linejoin="round" ed:tosuperid="104" ed:parentid="101" stroke-linecap="round" d="M-26.6,-76.8C-0.7,-19.7,-8.2,104.8,61.4,104.8"/><path stroke="#696969" transform="matrix(1,0,0,1,144,711)" fill="none" id="107" stroke-linejoin="round" ed:tosuperid="106" ed:parentid="101" stroke-linecap="round" d="M-32.4,-185.1C2.7,-90.2,-40.6,213.1,61.4,213.1"/><path stroke="#696969" transform="matrix(1,0,0,1,322,238)" fill="none" id="109" stroke-linejoin="round" ed:tosuperid="108" ed:parentid="102" stroke-linecap="round" d="M-13.5,42.8C5,42.8,-12.5,-42.8,13.5,-42.8"/><path stroke="#696969" transform="matrix(1,0,0,1,322,370)" fill="none" id="111" stroke-linejoin="round" ed:tosuperid="110" ed:parentid="102" stroke-linecap="round" d="M-13.5,-88.9C5.4,-88.9,-13.5,88.9,13.5,88.9"/><path stroke="#696969" transform="matrix(1,0,0,1,375,137)" fill="none" id="113" stroke-linejoin="round" ed:tosuperid="112" ed:parentid="108" stroke-linecap="round" d="M-13.5,58.5C5.4,58.5,-13.5,-58.5,13.5,-58.5"/><path stroke="#696969" transform="matrix(1,0,0,1,375,188)" fill="none" id="115" stroke-linejoin="round" ed:tosuperid="114" ed:parentid="108" stroke-linecap="round" d="M-13.5,7.5C-0.9,7.5,1.3,-7.5,13.5,-7.5"/><path stroke="#696969" transform="matrix(1,0,0,1,375,271)" fill="none" id="117" stroke-linejoin="round" ed:tosuperid="116" ed:parentid="108" stroke-linecap="round" d="M-13.5,-75.5C5.4,-75.5,-13.5,75.5,13.5,75.5"/><path stroke="#696969" transform="matrix(1,0,0,1,407,500)" fill="none" id="119" stroke-linejoin="round" ed:tosuperid="118" ed:parentid="110" stroke-linecap="round" d="M-13.5,-41.2C4.8,-41.2,-12.2,41.2,13.5,41.2"/><path stroke="#696969" transform="matrix(1,0,0,1,322,660)" fill="none" id="121" stroke-linejoin="round" ed:tosuperid="120" ed:parentid="104" stroke-linecap="round" d="M-13.5,46.8C5.2,46.8,-13.1,-46.8,13.5,-46.8"/><path stroke="#696969" transform="matrix(1,0,0,1,322,694)" fill="none" id="123" stroke-linejoin="round" ed:tosuperid="122" ed:parentid="104" stroke-linecap="round" d="M-13.5,13.5C0.4,13.5,-1.8,-13.5,13.5,-13.5"/><path stroke="#696969" transform="matrix(1,0,0,1,322,746)" fill="none" id="125" stroke-linejoin="round" ed:tosuperid="124" ed:parentid="104" stroke-linecap="round" d="M-13.5,-39.2C4.7,-39.2,-11.8,39.2,13.5,39.2"/><path stroke="#696969" transform="matrix(1,0,0,1,400,622)" fill="none" id="127" stroke-linejoin="round" ed:tosuperid="126" ed:parentid="120" stroke-linecap="round" d="M-13.5,-8C-0.8,-8,1,8,13.5,8"/><path stroke="#696969" transform="matrix(1,0,0,1,423,691)" fill="none" id="129" stroke-linejoin="round" ed:tosuperid="128" ed:parentid="122" stroke-linecap="round" d="M-13.5,-10.3C-0.3,-10.3,-0.2,10.3,13.5,10.3"/><path stroke="#696969" transform="matrix(1,0,0,1,386,766)" fill="none" id="131" stroke-linejoin="round" ed:tosuperid="130" ed:parentid="124" stroke-linecap="round" d="M-13.5,19.3C1.6,19.3,-4.7,-19.3,13.5,-19.3"/><path stroke="#696969" transform="matrix(1,0,0,1,386,801)" fill="none" id="133" stroke-linejoin="round" ed:tosuperid="132" ed:parentid="124" stroke-linecap="round" d="M-13.5,-15.5C0.8,-15.5,-2.8,15.5,13.5,15.5"/><path stroke="#696969" transform="matrix(1,0,0,1,476,755)" fill="none" id="135" stroke-linejoin="round" ed:tosuperid="134" ed:parentid="130" stroke-linecap="round" d="M-13.5,-8C-0.8,-8,1,8,13.5,8"/><path stroke="#696969" transform="matrix(1,0,0,1,503,829)" fill="none" id="137" stroke-linejoin="round" ed:tosuperid="136" ed:parentid="132" stroke-linecap="round" d="M-13.5,-11.8C0,-11.8,-1,11.8,13.5,11.8"/><path stroke="#696969" transform="matrix(1,0,0,1,322,914)" fill="none" id="141" stroke-linejoin="round" ed:tosuperid="140" ed:parentid="106" stroke-linecap="round" d="M-13.5,9.6C-0.5,9.6,0.2,-9.6,13.5,-9.6"/><path stroke="#696969" transform="matrix(1,0,0,1,322,941)" fill="none" id="143" stroke-linejoin="round" ed:tosuperid="142" ed:parentid="106" stroke-linecap="round" d="M-13.5,-17.2C1.2,-17.2,-3.7,17.2,13.5,17.2"/><path stroke="#696969" transform="matrix(1,0,0,1,403,908)" fill="none" id="145" stroke-linejoin="round" ed:tosuperid="144" ed:parentid="140" stroke-linecap="round" d="M-13.5,-3.8C-1.8,-3.8,3.3,3.8,13.5,3.8"/><path stroke="#696969" transform="matrix(1,0,0,1,422,966)" fill="none" id="147" stroke-linejoin="round" ed:tosuperid="146" ed:parentid="142" stroke-linecap="round" d="M-13.5,-8C-0.8,-8,1,8,13.5,8"/><g ed:height="56" transform="matrix(1,0,0,1,23,470)" id="101" ed:layout="rightmap" ed:width="119.6666666666667" ed:topictype="mainidea"><path stroke="#435fbc" fill="#435fbc" stroke-linejoin="round" stroke-width="3" d="M4,0L115.7,0C118.4,0,119.7,1.3,119.7,4L119.7,52C119.7,54.7,118.4,56,115.7,56L4,56C1.3,56,0,54.7,0,52L0,4C0,1.3,1.3,0,4,0z"/><text class="st1"><tspan y="34.1" style="white-space:pre" x="21">控制语句</tspan></text></g><g ed:height="36.66666666666667" transform="matrix(1,0,0,1,206,263)" id="102" ed:parentid="101" ed:width="103"><path stroke="#ebecf3" fill="#ebecf3" stroke-linejoin="round" d="M4,0L99,0C101.7,0,103,1.3,103,4L103,32.7C103,35.4,101.7,36.7,99,36.7L4,36.7C1.3,36.7,0,35.4,0,32.7L0,4C0,1.3,1.3,0,4,0z"/><text class="st2"><tspan y="23.5" style="white-space:pre" x="18">分支语句</tspan></text></g><g ed:height="36.66666666666667" transform="matrix(1,0,0,1,206,689)" id="104" ed:parentid="101" ed:width="103"><path stroke="#ebecf3" fill="#ebecf3" stroke-linejoin="round" d="M4,0L99,0C101.7,0,103,1.3,103,4L103,32.7C103,35.4,101.7,36.7,99,36.7L4,36.7C1.3,36.7,0,35.4,0,32.7L0,4C0,1.3,1.3,0,4,0z"/><text class="st2"><tspan y="23.5" style="white-space:pre" x="18">循环语句</tspan></text></g><g ed:height="36.66666666666667" transform="matrix(1,0,0,1,206,905)" id="106" ed:parentid="101" ed:width="103"><path stroke="#ebecf3" fill="#ebecf3" stroke-linejoin="round" d="M4,0L99,0C101.7,0,103,1.3,103,4L103,32.7C103,35.4,101.7,36.7,99,36.7L4,36.7C1.3,36.7,0,35.4,0,32.7L0,4C0,1.3,1.3,0,4,0z"/><text class="st2"><tspan y="23.5" style="white-space:pre" x="18">跳转语句</tspan></text></g><g ed:height="23.5" transform="matrix(1,0,0,1,336,172)" id="108" ed:parentid="102" ed:width="26"><path stroke="#696969" fill="none" stroke-linejoin="round" d="M0,23.5L26,23.5"/><text class="st3"><tspan y="15.4" style="white-space:pre" x="8">if</tspan></text></g><g ed:height="23.5" transform="matrix(1,0,0,1,336,435)" id="110" ed:parentid="102" ed:width="57.33333333333334"><path stroke="#696969" fill="none" stroke-linejoin="round" d="M0,23.5L57.3,23.5"/><text class="st3"><tspan y="15.4" style="white-space:pre" x="8">switch</tspan></text></g><g ed:height="57.5" transform="matrix(1,0,0,1,389,21)" id="112" ed:parentid="108" ed:width="142"><path stroke="#696969" fill="none" stroke-linejoin="round" d="M0,57.5L142,57.5"/><text class="st3"><tspan y="16.1" class="st4" style="white-space:pre" x="8">if（关系表达式）{</tspan><tspan y="34.1" class="st4" style="white-space:pre" x="8">	语句体；</tspan><tspan y="50.1" class="st4" style="white-space:pre" x="8">}</tspan></text></g><g ed:height="95.5" transform="matrix(1,0,0,1,389,85)" id="114" ed:parentid="108" ed:width="132.6666666666667"><path stroke="#696969" fill="none" stroke-linejoin="round" d="M0,95.5L132.7,95.5"/><text class="st3"><tspan y="15.4" style="white-space:pre" x="8">if(关系表达式){</tspan><tspan y="33.4" style="white-space:pre" x="8">	语句体1；</tspan><tspan y="51.4" style="white-space:pre" x="8">} else{</tspan><tspan y="69.4" style="white-space:pre" x="8">	语句体2；</tspan><tspan y="87.4" style="white-space:pre" x="8">}</tspan></text></g><g ed:height="159.5" transform="matrix(1,0,0,1,389,187)" id="116" ed:parentid="108" ed:width="200.6666666666667"><path stroke="#696969" fill="none" stroke-linejoin="round" d="M0,159.5L200.7,159.5"/><text class="st3"><tspan y="16.1" class="st5" style="white-space:pre" x="8">if</tspan><tspan class="st6" style="white-space:pre">(</tspan><tspan class="st4" style="white-space:pre">关系表达式</tspan><tspan class="st7" style="white-space:pre">1</tspan><tspan class="st6" style="white-space:pre">){</tspan><tspan y="34.1" class="st4" style="white-space:pre" x="8">	语句体</tspan><tspan class="st7" style="white-space:pre">1</tspan><tspan class="st4" style="white-space:pre">；</tspan><tspan y="52.1" class="st6" style="white-space:pre" x="8">}</tspan><tspan class="st4" style="white-space:pre"> </tspan><tspan class="st5" style="white-space:pre">else</tspan><tspan class="st4" style="white-space:pre"> </tspan><tspan class="st5" style="white-space:pre">if</tspan><tspan class="st6" style="white-space:pre">(</tspan><tspan class="st4" style="white-space:pre">关系表达式</tspan><tspan class="st7" style="white-space:pre">2</tspan><tspan class="st6" style="white-space:pre">){</tspan><tspan y="70.1" class="st4" style="white-space:pre" x="8">	语句体</tspan><tspan class="st7" style="white-space:pre">2</tspan><tspan class="st4" style="white-space:pre">；</tspan><tspan y="86.1" class="st6" style="white-space:pre" x="8">}</tspan><tspan y="102.1" class="st6" style="white-space:pre" x="8">...</tspan><tspan y="118.1" class="st5" style="white-space:pre" x="8">else</tspan><tspan class="st4" style="white-space:pre"> </tspan><tspan class="st6" style="white-space:pre">{</tspan><tspan y="136.1" class="st4" style="white-space:pre" x="8">	语句体n</tspan><tspan class="st8" style="white-space:pre">+</tspan><tspan class="st7" style="white-space:pre">1</tspan><tspan class="st6" style="white-space:pre">;</tspan><tspan y="152.1" class="st6" style="white-space:pre" x="8">}</tspan></text></g><g ed:height="188.1666666666667" transform="matrix(1,0,0,1,420,353)" id="118" ed:parentid="110" ed:width="238"><path stroke="#696969" fill="none" stroke-linejoin="round" d="M0,188.2L238,188.2"/><text class="st3"><tspan y="13.4" class="st9" style="white-space:pre" x="8">switch</tspan><tspan class="st10" style="white-space:pre">(</tspan><tspan class="st11" style="white-space:pre">expression</tspan><tspan class="st10" style="white-space:pre">){</tspan><tspan y="28.8" class="st12" style="white-space:pre" x="8">    </tspan><tspan class="st9" style="white-space:pre">case</tspan><tspan class="st12" style="white-space:pre"> </tspan><tspan class="st11" style="white-space:pre">value</tspan><tspan class="st12" style="white-space:pre"> :</tspan><tspan y="46.1" class="st12" style="white-space:pre" x="8">       </tspan><tspan class="st13" style="white-space:pre">//语句</tspan><tspan y="63.4" class="st12" style="white-space:pre" x="8">       </tspan><tspan class="st9" style="white-space:pre">break</tspan><tspan class="st12" style="white-space:pre">; </tspan><tspan class="st13" style="white-space:pre">//可选</tspan><tspan y="78.8" class="st12" style="white-space:pre" x="8">    </tspan><tspan class="st9" style="white-space:pre">case</tspan><tspan class="st12" style="white-space:pre"> </tspan><tspan class="st11" style="white-space:pre">value</tspan><tspan class="st12" style="white-space:pre"> :</tspan><tspan y="96.1" class="st12" style="white-space:pre" x="8">       </tspan><tspan class="st13" style="white-space:pre">//语句</tspan><tspan y="113.4" class="st12" style="white-space:pre" x="8">       </tspan><tspan class="st9" style="white-space:pre">break</tspan><tspan class="st12" style="white-space:pre">; </tspan><tspan class="st13" style="white-space:pre">//可选</tspan><tspan y="130.8" class="st12" style="white-space:pre" x="8">    </tspan><tspan class="st13" style="white-space:pre">//你可以有任意数量的case语句</tspan><tspan y="148.1" class="st12" style="white-space:pre" x="8">    </tspan><tspan class="st9" style="white-space:pre">default</tspan><tspan class="st12" style="white-space:pre"> : </tspan><tspan class="st13" style="white-space:pre">//可选</tspan><tspan y="165.4" class="st12" style="white-space:pre" x="8">       </tspan><tspan class="st13" style="white-space:pre">//语句</tspan><tspan y="180.8" class="st10" style="white-space:pre" x="8">}</tspan></text></g><g ed:height="23.5" transform="matrix(1,0,0,1,336,590)" id="120" ed:parentid="104" ed:width="50.66666666666666"><path stroke="#696969" fill="none" stroke-linejoin="round" d="M0,23.5L50.7,23.5"/><text class="st3"><tspan y="15.4" style="white-space:pre" x="8">while</tspan></text></g><g ed:height="23.5" transform="matrix(1,0,0,1,336,657)" id="122" ed:parentid="104" ed:width="74"><path stroke="#696969" fill="none" stroke-linejoin="round" d="M0,23.5L74,23.5"/><text class="st3"><tspan y="15.4" style="white-space:pre" x="8">do-while</tspan></text></g><g ed:height="23.5" transform="matrix(1,0,0,1,336,762)" id="124" ed:parentid="104" ed:width="36.66666666666667"><path stroke="#696969" fill="none" stroke-linejoin="round" d="M0,23.5L36.7,23.5"/><text class="st3"><tspan y="15.4" style="white-space:pre" x="8">for</tspan></text></g><g ed:height="55.5" transform="matrix(1,0,0,1,413,574)" id="126" ed:parentid="120" ed:width="165.3333333333333"><path stroke="#696969" fill="none" stroke-linejoin="round" d="M0,55.5L165.3,55.5"/><text class="st3"><tspan y="15.4" class="st9" style="white-space:pre" x="8">while</tspan><tspan class="st10" style="white-space:pre">(</tspan><tspan class="st12" style="white-space:pre"> 布尔表达式 </tspan><tspan class="st10" style="white-space:pre">)</tspan><tspan class="st12" style="white-space:pre"> </tspan><tspan class="st10" style="white-space:pre">{</tspan><tspan y="32.8" class="st12" style="white-space:pre" x="8">  </tspan><tspan class="st13" style="white-space:pre">//循环内容</tspan><tspan y="48.1" class="st10" style="white-space:pre" x="8">}</tspan></text></g><g ed:height="64.83333333333334" transform="matrix(1,0,0,1,437,636)" id="128" ed:parentid="122" ed:width="230"><path stroke="#696969" fill="none" stroke-linejoin="round" d="M0,64.8L230,64.8"/><text class="st14"><tspan y="14.8" class="st15" style="white-space:pre" x="32">do</tspan><tspan class="st16" style="white-space:pre"> </tspan><tspan class="st17" style="white-space:pre">{</tspan><tspan y="35.4" class="st16" style="white-space:pre" x="32">       </tspan><tspan class="st18" style="white-space:pre">//代码语句</tspan><tspan y="56.1" class="st17" style="white-space:pre" x="32">}</tspan><tspan class="st15" style="white-space:pre">while</tspan><tspan class="st17" style="white-space:pre">(布尔表达式);</tspan></text></g><g ed:height="23.5" transform="matrix(1,0,0,1,399,724)" id="130" ed:parentid="124" ed:width="63.33333333333334"><path stroke="#696969" fill="none" stroke-linejoin="round" d="M0,23.5L63.3,23.5"/><text class="st3"><tspan y="15.4" style="white-space:pre" x="8">for循环</tspan></text></g><g ed:height="23.5" transform="matrix(1,0,0,1,399,793)" id="132" ed:parentid="124" ed:width="90"><path stroke="#696969" fill="none" stroke-linejoin="round" d="M0,23.5L90,23.5"/><text class="st3"><tspan y="15.4" style="white-space:pre" x="8">增强for循环</tspan></text></g><g ed:height="55.5" transform="matrix(1,0,0,1,490,708)" id="134" ed:parentid="130" ed:width="232"><path stroke="#696969" fill="none" stroke-linejoin="round" d="M0,55.5L232,55.5"/><text class="st3"><tspan y="15.4" class="st9" style="white-space:pre" x="8">for</tspan><tspan class="st10" style="white-space:pre">(</tspan><tspan class="st12" style="white-space:pre">初始化; 布尔表达式; 更新</tspan><tspan class="st10" style="white-space:pre">)</tspan><tspan class="st12" style="white-space:pre"> </tspan><tspan class="st10" style="white-space:pre">{</tspan><tspan y="32.8" class="st12" style="white-space:pre" x="8">    </tspan><tspan class="st13" style="white-space:pre">//代码语句</tspan><tspan y="48.1" class="st10" style="white-space:pre" x="8">}</tspan></text></g><g ed:height="70.83333333333333" transform="matrix(1,0,0,1,516,770)" id="136" ed:parentid="132" ed:width="170"><path stroke="#696969" fill="none" stroke-linejoin="round" d="M0,70.8L170,70.8"/><text class="st3"><tspan y="15.4" class="st9" style="white-space:pre" x="8">for</tspan><tspan class="st10" style="white-space:pre">(</tspan><tspan class="st12" style="white-space:pre">声明语句 : 表达式</tspan><tspan class="st10" style="white-space:pre">)</tspan><tspan y="30.8" class="st10" style="white-space:pre" x="8">{</tspan><tspan y="48.1" class="st12" style="white-space:pre" x="8">   </tspan><tspan class="st13" style="white-space:pre">//代码句子</tspan><tspan y="63.4" class="st10" style="white-space:pre" x="8">}</tspan></text></g><g ed:height="23.5" transform="matrix(1,0,0,1,336,881)" id="140" ed:parentid="106" ed:width="54"><path stroke="#696969" fill="none" stroke-linejoin="round" d="M0,23.5L54,23.5"/><text class="st3"><tspan y="15.4" style="white-space:pre" x="8">break</tspan></text></g><g ed:height="23.5" transform="matrix(1,0,0,1,336,935)" id="142" ed:parentid="106" ed:width="72.66666666666666"><path stroke="#696969" fill="none" stroke-linejoin="round" d="M0,23.5L72.7,23.5"/><text class="st3"><tspan y="15.4" style="white-space:pre" x="7">continue</tspan></text></g><g ed:height="38.83333333333334" transform="matrix(1,0,0,1,417,873)" id="144" ed:parentid="140" ed:width="406.6666666666667"><path stroke="#696969" fill="none" stroke-linejoin="round" d="M0,38.8L406.7,38.8"/><text class="st3"><tspan y="14.8" class="st19" style="white-space:pre" x="8">break 主要用在循环语句或者 switch 语句中，用来跳出整个语句块。</tspan><tspan y="31.4" class="st19" style="white-space:pre" x="8">break 跳出最里层的循环，并且继续执行该循环下面的语句。</tspan></text></g><g ed:height="55.5" transform="matrix(1,0,0,1,435,919)" id="146" ed:parentid="142" ed:width="440.6666666666667"><path stroke="#696969" fill="none" stroke-linejoin="round" d="M0,55.5L440.7,55.5"/><text class="st3"><tspan y="14.8" class="st19" style="white-space:pre" x="8">适用于任何循环控制结构中。作用是让程序立刻跳转到下一次循环的迭代。</tspan><tspan y="31.4" class="st19" style="white-space:pre" x="8">在 for 循环中，continue 语句使程序立即跳转到更新语句。</tspan><tspan y="48.1" class="st19" style="white-space:pre" x="8">在 while 或者 do…while 循环中，程序立即跳转到布尔表达式的判断语句。</tspan></text></g><symbol id="plus"><path fill="url(#lg1)" d="M11,6C11,8.8,8.8,11,6,11C3.2,11,1,8.8,1,6C1,3.2,3.2,1,6,1C8.8,1,11,3.2,11,6z"/><path stroke="#46a000" fill="none" stroke-width="0.7" d="M11,6C11,8.8,8.8,11,6,11C3.2,11,1,8.8,1,6C1,3.2,3.2,1,6,1C8.8,1,11,3.2,11,6zM3,6L9,6M6,3L6,9"/></symbol><symbol id="minus"><path fill="url(#lg1)" d="M11,6C11,8.8,8.8,11,6,11C3.2,11,1,8.8,1,6C1,3.2,3.2,1,6,1C8.8,1,11,3.2,11,6z"/><path stroke="#46a000" fill="none" stroke-width="0.7" d="M11,6C11,8.8,8.8,11,6,11C3.2,11,1,8.8,1,6C1,3.2,3.2,1,6,1C8.8,1,11,3.2,11,6zM3,6L9,6"/></symbol><g transform="translate(144,492)" ed:togtopicid="101"><use xlink:href="#minus"/></g><g transform="translate(310,275)" ed:togtopicid="102"><use xlink:href="#minus"/></g><g transform="translate(310,701)" ed:togtopicid="104"><use xlink:href="#minus"/></g><g transform="translate(310,918)" ed:togtopicid="106"><use xlink:href="#minus"/></g><g transform="translate(363,178)" ed:togtopicid="108"><use xlink:href="#minus"/></g><g transform="translate(394,441)" ed:togtopicid="110"><use xlink:href="#minus"/></g><g transform="translate(387,596)" ed:togtopicid="120"><use xlink:href="#minus"/></g><g transform="translate(411,663)" ed:togtopicid="122"><use xlink:href="#minus"/></g><g transform="translate(373,768)" ed:togtopicid="124"><use xlink:href="#minus"/></g><g transform="translate(464,729)" ed:togtopicid="130"><use xlink:href="#minus"/></g><g transform="translate(490,799)" ed:togtopicid="132"><use xlink:href="#minus"/></g><g transform="translate(391,887)" ed:togtopicid="140"><use xlink:href="#minus"/></g><g transform="translate(409,940)" ed:togtopicid="142"><use xlink:href="#minus"/></g></svg>